<svg height="512" viewBox="0 0 60 56" fill="#ffffff" width="512" xmlns="http://www.w3.org/2000/svg"><path d="M27 6h6a1 1 0 000-2h-6a1 1 0 000 2zm17 0h11a1 1 0 000-2H44a1 1 0 000 2z"/><path d="M55 0H5a5.006 5.006 0 00-5 5v46a5.006 5.006 0 005 5h50a5.006 5.006 0 005-5V5a5.006 5.006 0 00-5-5zM5 2h50a3 3 0 013 3v3H2V5a3 3 0 013-3zm50 52H5a3 3 0 01-3-3V10h56v41a3 3 0 01-3 3z"/><circle cx="5" cy="5" r="1"/><circle cx="9" cy="5" r="1"/><circle cx="13" cy="5" r="1"/><path d="M38 34a7 7 0 00-6.063 3.518 3.881 3.881 0 00-3.874 0 7.071 7.071 0 10.746 1.885 2.117 2.117 0 012.382 0A7 7 0 1038 34zM22 46a5 5 0 110-10 5 5 0 010 10zm16 0a5 5 0 110-10 5 5 0 010 10zm3.687-20.159l-2.75-8.941a4.008 4.008 0 00-5.4-2.506l-2.758 1.184a1.93 1.93 0 01-1.562 0l-2.755-1.188a4.008 4.008 0 00-5.4 2.506l-2.75 8.945a17.3 17.3 0 00-7.4 4.5A1 1 0 0011.67 32h36.66a1 1 0 00.754-1.657 17.3 17.3 0 00-7.397-4.502zm-18.711-8.358a2.008 2.008 0 012.7-1.254l2.742 1.176a3.93 3.93 0 003.156 0l2.747-1.18a2.009 2.009 0 012.7 1.255l2.357 7.666a38.837 38.837 0 00-18.762 0zM14.3 30c3.516-2.477 9.343-4 15.7-4a34.89 34.89 0 0110.657 1.584c1.79.555 3.49 1.369 5.043 2.416z"/></svg>