<svg xmlns="http://www.w3.org/2000/svg" fill="#00BCD1" width="512" height="512"><path d="M491.279 280.708A31.983 31.983 0 00464 232h-32a31.813 31.813 0 00-17.804 5.425A32.05 32.05 0 00384 216h-52.687l1.008-1.008 16.117-5.372a52.01 52.01 0 0023.041-83.186l-27.827-32.465A39.953 39.953 0 00313.282 80H288V48a32 32 0 00-64 0v32h-25.282a39.953 39.953 0 00-30.37 13.969l-27.827 32.464a52.01 52.01 0 0023.04 83.187l16.118 5.372 1.008 1.008H136a8.008 8.008 0 00-4.116 1.14L98.07 237.427 78.4 211.2A8 8 0 0072 208H56a8 8 0 00-8 8v64H24a8 8 0 00-8 8v32a8 8 0 008 8h13.104l45.775 38.146A7.999 7.999 0 0088 368h104v72h-24a7.999 7.999 0 00-7.428 5.03l-16 40A7.999 7.999 0 00152 496h256a7.999 7.999 0 007.428-10.97l-16-40A7.999 7.999 0 00392 440h-72v-72h104a7.999 7.999 0 005.121-1.854L474.896 328H488a8 8 0 008-8v-32a7.997 7.997 0 00-4.721-7.292zM480 264a15.996 15.996 0 01-8 13.835v-27.67A15.996 15.996 0 01480 264zm-24-16v32h-8v-32zm-27.019.295l3.019 3.018v25.373l-3.019 3.019a15.99 15.99 0 010-31.41zM400 248v16a31.792 31.792 0 004.305 16H376v-48h8a16.018 16.018 0 0116 16zm-97.532-54.218L316.686 208l-8 8H288v-7.767a8.02 8.02 0 013.35-6.51zM272 64h-32v-8h32zm-28.687 16h25.373l3.019 3.019a15.99 15.99 0 01-31.41 0zM256 32a15.997 15.997 0 0113.835 8h-27.67A15.997 15.997 0 01256 32zM144 160.28a36.027 36.027 0 018.669-23.434l27.827-32.465A23.972 23.972 0 01198.718 96h29.587a31.969 31.969 0 0055.39 0h29.587a23.972 23.972 0 0118.222 8.38l27.827 32.467a36.007 36.007 0 01-15.953 57.593l-13.217 4.406-14.493-14.492 24.981-17.844a7.999 7.999 0 001.751-11.31l-24-32-12.8 9.6 19.087 25.449-42.637 30.455a24.047 24.047 0 00-10.05 19.53V216h-32v-7.767a24.046 24.046 0 00-10.05-19.529l-42.637-30.455 19.087-25.45-12.8-9.599-24 32a7.999 7.999 0 001.75 11.31l24.982 17.844-14.493 14.492-13.217-4.406A35.961 35.961 0 01144 160.28zM195.314 208l14.218-14.218 11.117 7.942a8.018 8.018 0 013.351 6.51V216h-20.687zM104 252.53L138.216 232H360v48H104zM64 224h4l20 26.667V280H64zm-1.904 104H136v24H90.896zM360 328v24H152v-24zm36.184 152H163.816l9.6-24h213.168zM304 440h-96v-72h96zm117.104-88H376v-24h73.904zM480 312H32v-16h448z"/></svg>