<svg xmlns="http://www.w3.org/2000/svg" viewBox="0 0 530.06 153.75"><title>start-up.ro</title><path d="M30.24,123.31q7.71,0,11-2.57a8,8,0,0,0,3.25-6.5A8.24,8.24,0,0,0,40,106.68a51.94,51.94,0,0,0-11.11-4.54,69.34,69.34,0,0,1-9-3.17,26.21,26.21,0,0,1-7.11-4.46,19.13,19.13,0,0,1-4.61-6.2A20,20,0,0,1,6.5,79.77a17.56,17.56,0,0,1,7.41-15q7.41-5.44,20.26-5.44a62,62,0,0,1,12.32,1.21A44.56,44.56,0,0,1,57.6,64.34L54,76.29A40.17,40.17,0,0,0,35.23,71.9q-7,0-10.05,2.12a6.61,6.61,0,0,0-3.1,5.75A6.89,6.89,0,0,0,25.4,86a39,39,0,0,0,9.07,3.93,117,117,0,0,1,11,4.31,32.69,32.69,0,0,1,8,5.06,19.1,19.1,0,0,1,4.91,6.65A21.63,21.63,0,0,1,60,114.69a18.69,18.69,0,0,1-7.18,15.12q-7.18,5.9-21.85,5.9a70.94,70.94,0,0,1-13.76-1.29A38.77,38.77,0,0,1,6,130.56l3.63-11.94a41.26,41.26,0,0,0,9.45,3.4A47.5,47.5,0,0,0,30.24,123.31Z" transform="translate(-6.05 -9.17)"/><path d="M91.54,112.72q0,5,1.74,7.56t6.43,2.57a19.83,19.83,0,0,0,10.73-3l3.48,11.64a28.06,28.06,0,0,1-7.48,3.17A37.36,37.36,0,0,1,97,135.7q-10.89,0-15.95-5.52T76,112.72V73H64.78V60.87H76.12L79.9,40.15H91.54V60.87h21.62V73H91.54Z" transform="translate(-6.05 -9.17)"/><path d="M118.89,113.55q0-13.11,8.77-19.06t23.89-6h12.7V86.09q0-7.32-3.93-10.76t-11-3.43a44,44,0,0,0-11.79,1.51,50.94,50.94,0,0,0-10.28,4.08l-3.63-11.19a48,48,0,0,1,11.49-4.84,54.37,54.37,0,0,1,15.57-2.12q14.81,0,21.92,7.26t7.11,20V134H166.51l-2.27-10.89a42.72,42.72,0,0,1-3.4,4.69,20.55,20.55,0,0,1-4.54,4,23.12,23.12,0,0,1-6.27,2.8,31,31,0,0,1-8.62,1.06,26.31,26.31,0,0,1-8.77-1.43,20.39,20.39,0,0,1-7.18-4.29,19.79,19.79,0,0,1-4.84-7A24.14,24.14,0,0,1,118.89,113.55Zm45.36-14.13H151.4q-8.32,0-12.78,3.61t-4.46,10.07a10.18,10.18,0,0,0,2.95,7.66,10.32,10.32,0,0,0,7.48,2.85,19.13,19.13,0,0,0,8-1.65,19.5,19.5,0,0,0,10.21-10.59,18.82,18.82,0,0,0,1.44-7.14Z" transform="translate(-6.05 -9.17)"/><path d="M204.48,72.66q1.36-2.27,3.1-4.69a23.28,23.28,0,0,1,4-4.31,19.91,19.91,0,0,1,5.22-3.1,17.19,17.19,0,0,1,6.58-1.21A15.72,15.72,0,0,1,230,60.56a26,26,0,0,1,3.63,2l-3.93,15.12a13.56,13.56,0,0,0-9.22-3,18,18,0,0,0-9.45,2.49,17.14,17.14,0,0,0-6.58,7.48V134h-16V61h13.61Z" transform="translate(-6.05 -9.17)"/><path d="M264.42,112.72q0,5,1.74,7.56t6.43,2.57a19.84,19.84,0,0,0,10.73-3l3.48,11.64a28.06,28.06,0,0,1-7.48,3.17,37.35,37.35,0,0,1-9.45,1.06q-10.89,0-16-5.52t-5.06-17.46V73H237.66V60.87H249l3.78-20.71h11.64V60.87H286V73H264.42Z" transform="translate(-6.05 -9.17)"/><path d="M340.18,9.17,315.08,159H303.74l9.07-54.21H292.71l2.27-11h19.65l3.63-22h-19.8l1.81-11h20l8.62-51.72ZM330.5,159,355.6,9.17h11.34l-8.62,51.72h20.11l-2,11H356.35l-3.63,22H373l-1.81,11H350.91L341.84,159Z" transform="translate(-6.05 -9.17)" style="fill:#999"/><path d="M438.93,61h16v73H441.2l-2.27-10.89a34.54,34.54,0,0,1-3.7,4.31,27.9,27.9,0,0,1-5.14,4,31.42,31.42,0,0,1-6.58,3,25.24,25.24,0,0,1-8,1.21q-11.34,0-17.92-6.8T391,107.43V61h15.88v46.11q0,7.71,3.25,11.49t9.15,3.78a18.64,18.64,0,0,0,11.34-3.55,39.09,39.09,0,0,0,8.31-8.24Z" transform="translate(-6.05 -9.17)" style="fill:#2cafd2"/><path d="M467.47,61h13.91L483.5,71.3a31.34,31.34,0,0,1,3.86-4.08,29.89,29.89,0,0,1,5.44-3.86,34.48,34.48,0,0,1,6.8-2.87,27,27,0,0,1,7.94-1.13,24.75,24.75,0,0,1,12.7,3.17,27.16,27.16,0,0,1,8.92,8.32,38,38,0,0,1,5.22,11.87,54.57,54.57,0,0,1,1.74,13.68,57.1,57.1,0,0,1-2.27,16.86,36,36,0,0,1-6.35,12.32,27.12,27.12,0,0,1-9.6,7.56,28.13,28.13,0,0,1-12,2.57,23.66,23.66,0,0,1-13.76-3.86,30,30,0,0,1-8.62-8.69v39.76h-16ZM483.5,99a28.83,28.83,0,0,0,1.51,9.6,23.71,23.71,0,0,0,4,7.33,17.59,17.59,0,0,0,5.9,4.69,16.14,16.14,0,0,0,7.18,1.66,17.64,17.64,0,0,0,6.88-1.36,14.88,14.88,0,0,0,5.75-4.38,22.07,22.07,0,0,0,3.93-8,44.2,44.2,0,0,0,1.44-12.09q0-11.34-4.54-17.46a14.45,14.45,0,0,0-12.25-6.12A20.77,20.77,0,0,0,492,76a32.15,32.15,0,0,0-8.54,7.71Z" transform="translate(-6.05 -9.17)" style="fill:#2cafd2"/></svg>