<svg height="512" fill="#00BCD1" viewBox="0 0 511.996 511.996" width="512" xmlns="http://www.w3.org/2000/svg"><path d="M510.461 301.642l-47.159-190.314a66.982 66.982 0 00-34.42-43.498 67.02 67.02 0 00-55.395-2.681l-29.658 11.773c-11.893 4.737-17.721 18.262-12.996 30.142a23.044 23.044 0 0012.38 12.752c5.696 2.456 12.005 2.545 17.761.253l29.642-11.777c5.539-2.193 11.75-1.891 17.041.828s9.151 7.595 10.588 13.372l35.563 143.546c-19.842-20.293-47.499-32.912-78.052-32.912-26.01 0-50.834 9.135-70.548 25.845-14.746-9.187-31.637-14.015-49.21-14.015-17.582 0-34.472 4.826-49.21 14.013-19.704-16.708-44.525-25.843-70.538-25.843-30.557 0-58.218 12.619-78.061 32.914l19.142-77.259a7.5 7.5 0 00-5.476-9.083 7.496 7.496 0 00-9.083 5.476S31.867 309.996 31.79 310.427a108.84 108.84 0 00-4.751 30.674 36.973 36.973 0 01-4.251-4.55c-6.977-8.911-9.415-20.318-6.685-31.302l47.149-190.315a52.046 52.046 0 0126.719-33.765 52.02 52.02 0 0143.003-2.079l29.644 11.767c4.212 1.676 6.277 6.462 4.6 10.677-.808 2.039-2.361 3.64-4.372 4.508s-4.243.9-6.287.087l-29.654-11.782a35.633 35.633 0 00-29.422 1.431 35.586 35.586 0 00-18.282 23.106l-9.21 37.159a7.5 7.5 0 0014.559 3.609l9.21-37.162a20.594 20.594 0 0110.577-13.371 20.63 20.63 0 0117.033-.831l29.646 11.779c5.766 2.293 12.076 2.204 17.77-.253a23.037 23.037 0 0012.37-12.744c4.73-11.893-1.1-25.418-13.001-30.153l-29.647-11.769a67.02 67.02 0 00-55.398 2.68 67.043 67.043 0 00-34.42 43.496L1.542 301.638c-3.85 15.492-.411 31.589 9.434 44.162a51.744 51.744 0 0017.495 14.317c8.506 51.81 53.594 91.467 107.778 91.467 60.223 0 109.218-48.995 109.218-109.218 0-15.974-3.515-31.792-10.215-46.169 6.399-3.161 13.462-4.81 20.744-4.81 7.274 0 14.337 1.65 20.744 4.814a109.545 109.545 0 00-10.214 46.165c0 60.223 49 109.218 109.228 109.218 24.644 0 47.907-8.014 67.272-23.174a7.5 7.5 0 10-9.246-11.811c-16.701 13.074-36.766 19.985-58.026 19.985-51.958 0-94.228-42.266-94.228-94.218 0-15.889 4.031-31.602 11.658-45.439a7.5 7.5 0 00-2.341-9.815c-10.284-7.016-22.333-10.725-34.847-10.725-12.53 0-24.582 3.71-34.851 10.728a7.5 7.5 0 00-2.336 9.814c7.626 13.826 11.658 29.538 11.658 45.437 0 51.952-42.266 94.218-94.219 94.218-51.958 0-94.228-42.266-94.228-94.218 0-51.963 42.271-94.239 94.228-94.239 24.177 0 47.16 9.148 64.714 25.757a7.499 7.499 0 009.523.648c13.306-9.536 29.043-14.576 45.51-14.576 16.458 0 32.196 5.041 45.512 14.577a7.5 7.5 0 009.52-.648c17.565-16.611 40.551-25.759 64.725-25.759 51.952 0 94.219 42.275 94.219 94.239 0 19.532-5.917 38.257-17.112 54.15a7.5 7.5 0 0012.264 8.637c9.544-13.551 15.767-28.876 18.402-45.035a51.676 51.676 0 0017.503-14.322c9.833-12.57 13.271-28.663 9.433-44.153zm-21.245 34.91a37.143 37.143 0 01-4.26 4.56 108.859 108.859 0 00-4.753-30.692c-.079-.436-47.402-191.541-47.402-191.541a35.634 35.634 0 00-18.29-23.1 35.646 35.646 0 00-29.426-1.429l-29.655 11.782a8.138 8.138 0 01-6.277-.089 8.151 8.151 0 01-4.379-4.515c-1.673-4.206.394-8.993 4.598-10.667l29.652-11.771a52.018 52.018 0 0143.003 2.081 51.987 51.987 0 0126.717 33.762l47.159 190.316c2.72 10.983.282 22.393-6.687 31.303z"/><path d="M136.246 264.558c-42.896 0-77.794 34.903-77.794 77.805 0 42.896 34.898 77.794 77.794 77.794s77.794-34.899 77.794-77.794c0-42.902-34.899-77.805-77.794-77.805zm0 140.599c-34.625 0-62.795-28.17-62.795-62.795 0-34.631 28.169-62.805 62.795-62.805 34.625 0 62.794 28.174 62.794 62.805 0 34.626-28.169 62.795-62.794 62.795zM375.75 264.558c-42.896 0-77.794 34.903-77.794 77.805 0 42.896 34.898 77.794 77.794 77.794s77.794-34.899 77.794-77.794c0-42.902-34.899-77.805-77.794-77.805zm0 140.599c-34.625 0-62.795-28.17-62.795-62.795 0-34.631 28.169-62.805 62.795-62.805 34.625 0 62.794 28.174 62.794 62.805 0 34.626-28.169 62.795-62.794 62.795z"/></svg>