<svg height="512" viewBox="0 0 46 60" width="512" xmlns="http://www.w3.org/2000/svg"><g id="Page-1" fill="none" fill-rule="evenodd"><g id="058---Elderly-Couple" fill-rule="nonzero"><path id="Shape" d="m23 12.5c-.0116143.6839218-.298046 1.3343778-.7947113 1.8047048s-1.1617487.720927-1.8452887.6952952c-.0955594-.0002666-.1872818.0375763-.2548527.1051473-.067571.0675709-.1054139.1592933-.1051473.2548527v.64c.0037497 2.1757659-1.7347121 3.9542434-3.91 4-.4415672.0289607-.8444842.2618394-1.09.63-.7540636.8700155-1.8486795 1.3698269-3 1.3698269s-2.24593638-.4998114-3-1.3698269c-.24241207-.3714535-.64712895-.6053724-1.09-.63-2.1739134-.0489254-3.91055048-1.8255362-3.91-4v-.64c.00026655-.0955594-.0375763-.1872818-.10514727-.2548527-.06757096-.067571-.15929333-.1054139-.25485273-.1051473-.68368998.0261873-1.34908993-.2242269-1.84587935-.6946714-.49678941-.4704445-.78305289-1.1212268-.79412065-1.8053286 0-1.3807119 1.11928813-2.5 2.5-2.5h2.5v1c0 1.6568542 1.34314575 3 3 3 1.6568542 0 3-1.3431458 3-3 0 1.6568542 1.3431458 2.9999999 3 2.9999999s3-1.3431457 3-2.9999999v-1h2.5c1.3807119 0 2.5 1.1192881 2.5 2.5z" fill="#e8edfc"/><path id="Shape" d="m20.5 10h-2.5v.05c1.1641656.2376343 2.0002425 1.2618285 2 2.45-.0116143.6839218-.298046 1.3343778-.7947113 1.8047048s-1.1617487.720927-1.8452887.6952952c-.0955594-.0002666-.1872818.0375763-.2548527.1051473-.067571.0675709-.1054139.1592933-.1051473.2548527v.64c.0037497 2.1757659-1.7347121 3.9542434-3.91 4-.4415672.0289607-.8444842.2618394-1.09.63-.4049007.4740468-.9199694.8414625-1.5 1.07 1.5741788.6461676 3.3851432.2155605 4.5-1.07.2455158-.3681606.6484328-.6010393 1.09-.63 2.1752879-.0457566 3.9137497-1.8242341 3.91-4v-.64c-.0002666-.0955594.0375763-.1872818.1051473-.2548527.0675709-.067571.1592933-.1054139.2548527-.1051473.68354.0256318 1.3486234-.2249682 1.8452887-.6952952s.783097-1.120783.7947113-1.8047048c0-.6630412-.2633921-1.298926-.732233-1.767767-.468841-.4688409-1.1047258-.732233-1.767767-.732233z" fill="#cad9fc"/><path id="Shape" d="m12 10v1c0 1.6568542-1.3431458 3-3 3-1.65685425 0-3-1.3431458-3-3v-1z" fill="#e8edfc"/><path id="Shape" d="m23 7.5v5c0-1.3807119-1.1192881-2.5-2.5-2.5h-2.5v-2.5c0-1.38071187 1.1192881-2.5 2.5-2.5s2.5 1.11928813 2.5 2.5z" fill="#a4c2f7"/><path id="Shape" d="m6 7.5v2.5h-2.5c-1.38071187 0-2.5 1.1192881-2.5000129 2.5l.0000129-5c-.00213408-.66369315.26057266-1.30081863.72987702-1.77012298.46930435-.46930436 1.10642983-.7320111 1.77012298-.72987702.66352989-.00159823 1.3003437.26128061 1.76953155.73046845.46918784.46918785.73206668 1.10600166.73046845 1.76953155z" fill="#a4c2f7"/><path id="Shape" d="m19.47 5.22c-.8930195.407932-1.4670238 1.29822429-1.47 2.28v2.5h-12v-2.5c-.00297623-.98177571-.57698047-1.872068-1.47-2.28 1.24-1.59 3.48-3.22 7.47-3.22s6.23 1.63 7.47 3.22z" fill="#e8edfc"/><path id="Shape" d="m12 2c-.5012518.00030918-1.0020736.02935684-1.5.087 2.3384873.17082097 4.500862 1.30561491 5.97 3.133-.8930195.407932-1.4670238 1.29822429-1.47 2.28v2.5h3v-2.5c.0029762-.98177571.5769805-1.872068 1.47-2.28-1.24-1.59-3.48-3.22-7.47-3.22z" fill="#cad9fc"/><path id="Shape" d="m18 10v1c0 1.6568542-1.3431458 2.9999999-3 2.9999999s-3-1.3431457-3-2.9999999v-1z" fill="#e8edfc"/><path id="Shape" d="m15 20.63v2.37c0 1.6568542-1.3431458 3-3 3s-3-1.3431458-3-3v-2.37c.75406362.8700155 1.8486795 1.3698269 3 1.3698269s2.2459364-.4998114 3-1.3698269z" fill="#cad9fc"/><path id="Shape" d="m12 26c-.942683.568621-1.7187699 1.3757513-2.25 2.34-.22522256.3613133-.60361286.599479-1.02679365.6462824s-.84447108-.1029183-1.14320635-.4062824l-2.58-2.58c.57377473-1.7388072 2.17008814-2.9360423 4-3 0 .7956495.31607052 1.5587112.87867966 2.1213203.56260914.5626092 1.32567084.8786797 2.12132034.8786797z" fill="#e8edfc"/><path id="Shape" d="m45 18.5c-.0116143.6839218-.298046 1.3343778-.7947113 1.8047048s-1.1617487.720927-1.8452887.6952952c-.1980088-.0034098-.3624125.1521072-.37.35-.1479815 2.098114-1.5959308 3.8780517-3.62 4.45-.1473867.0419794-.28619.1096883-.41.2-.434.251-.516.546-.96.92-1.7381089 1.4474559-4.2618911 1.4474559-6 0-.433-.365-.539-.676-.96-.92-.12381-.0903117-.2626133-.1580206-.41-.2-2.0240692-.5719483-3.4720185-2.351886-3.62-4.45-.0065285-.1983713-.1715722-.3544937-.37-.35-.68369.0261873-1.3490899-.2242269-1.8458793-.6946714-.4967895-.4704445-.7830529-1.1212268-.7941207-1.8053286 0-1.3807119 1.1192881-2.5 2.5-2.5h2.5c0 1.6568542 1.3431458 3 3 3s3-1.3431458 3-3c0 1.6568542 1.3431458 3 3 3s3-1.3431458 3-3h2.5c1.3807119 0 2.5 1.1192881 2.5 2.5z" fill="#e8edfc"/><path id="Shape" d="m42.5 16h-2.5c0 .017-.005.033-.005.05.6678011.1358367 1.2514826.5377817 1.6165567 1.1132214s.4800527 1.2747421.3184433 1.9367786c-.3203085 1.1472577-1.3792482 1.9301314-2.57 1.9-.1980088-.0034098-.3624125.1521072-.37.35-.1479815 2.098114-1.5959308 3.8780517-3.62 4.45-.957.255-1.015 1.357-2.87 1.957 1.5426982.5333826 3.2522582.2154044 4.5-.837.433-.365.539-.676.96-.92.12381-.0903117.2626133-.1580206.41-.2 2.0240692-.5719483 3.4720185-2.351886 3.62-4.45.0065285-.1983713.1715722-.3544937.37-.35.68369.0261873 1.3490899-.2242269 1.8458793-.6946714.4967895-.4704445.7830529-1.1212268.7941207-1.8053286 0-.6630412-.2633921-1.298926-.732233-1.767767-.468841-.4688409-1.1047258-.732233-1.767767-.732233z" fill="#cad9fc"/><path id="Shape" d="m39.35 5.13c-.4443916-.08924184-.8967449-.13280179-1.35-.13h-8c-.4532551-.00280179-.9056084.04075816-1.35.13.6364894-2.4332923 2.8348399-4.13057154 5.35-4.13057154s4.7135106 1.69727924 5.35 4.13057154z" fill="#a4c2f7"/><path id="Shape" d="m31 28.9999993v17.0000007h-6c-1.1032019-.0032948-1.9967052-.8967981-2-2v-7c-.0001329-2.1220657.8413942-4.1575542 2.34-5.66.12-.12.24-.23.37-.34 1.4603897-1.2895405 3.3417567-2.0008324 5.29-2.0000007z" fill="#e8edfc"/><path id="Shape" d="m28 29.589v16.411h3v-17c-1.0287185.0000873-2.0476125.2001302-3 .589z" fill="#cad9fc"/><path id="Shape" d="m45 37v7c-.0032948 1.1032019-.8967981 1.9967052-2 2h-6v-17c4.4159938.0055097 7.9944903 3.5840062 8 8z" fill="#e8edfc"/><path id="Shape" d="m41.82 30.62c-1.3851414-1.0547137-3.0790171-1.6240246-4.82-1.6200212v.6080212c3.033545 1.1946687 5.0202081 4.1317515 5 7.392v7c-.0032948 1.1032019-.8967981 1.9967052-2 2h3c1.1032019-.0032948 1.9967052-.8967981 2-2v-7c.004094-2.5088378-1.1742489-4.8729345-3.18-6.38z" fill="#cad9fc"/><path id="Shape" d="m43 28.5c.0024054.8638645-.4445328 1.6668382-1.18 2.12-1.3851414-1.0547137-3.0790171-1.6240246-4.82-1.62v-2.08c.168766-.1444614.3228476-.3052422.46-.48.139596-.1748324.308838-.3237653.5-.44h2.54c.6636932-.0021341 1.3008186.2605727 1.770123.729877.4693043.4693044.7320111 1.1064298.729877 1.770123z" fill="#e8edfc"/><path id="Shape" d="m42.27 26.73c-.4697537-.4685697-1.1065057-.731185-1.77-.73h-2.54c-.02.011-.036.028-.055.041 1.2113983.1869088 2.1028884 1.2332926 2.095 2.459-.0047895.3482413-.0835286.6914892-.231 1.007.7347809.2678967 1.4259193.6429513 2.051 1.113.6478963-.4024623 1.0766266-1.0786739 1.1642748-1.8363435.0876482-.7576697-.175375-1.5139042-.7142748-2.0536565z" fill="#cad9fc"/><path id="Shape" d="m19 26-2.58 2.58c-.2987353.3033641-.7200256.4530858-1.1432064.4062824-.4231807-.0468034-.801571-.2849691-1.0267936-.6462824-.5312301-.9642487-1.307317-1.771379-2.25-2.34 1.6568542 0 3-1.3431458 3-3 1.8299119.0639577 3.4262253 1.2611928 4 3z" fill="#e8edfc"/><path id="Shape" d="m31 26.92v2.08c-1.9482433-.0008324-3.8296103.7104595-5.29 2l-6.21 1.61c-.8820508.2317345-1.4977347 1.0280189-1.5 1.94v9.45h-12v3h-3c-1.10320187-.0032948-1.9967052-.8967981-2-2v-15c0-2.209139 1.790861-4 4-4l2.58 2.58c.29873527.3033641.72002556.4530858 1.14320635.4062824s.80157109-.2849691 1.02679365-.6462824c.5312301-.9642487 1.307317-1.771379 2.25-2.34.942683.568621 1.7187699 1.3757513 2.25 2.34.2252226.3613133.6036129.599479 1.0267936.6462824.4231808.0468034.8444711-.1029183 1.1432064-.4062824l2.58-2.58h11.04c.191162.1162347.360404.2651676.5.44.1371524.1747578.291234.3355386.46.48z" fill="#e8edfc"/><path id="Shape" d="m30.04 26h-3c.434.251.516.546.96.92v2.08c-1.9482433-.0008324-3.8296103.7104595-5.29 2l-6.21 1.61c-.8820508.2317345-1.4977347 1.0280189-1.5 1.94v9.45h3v-9.45c.0022653-.9119811.6179492-1.7082655 1.5-1.94l6.21-1.61c1.4603897-1.2895405 3.3417567-2.0008324 5.29-2v-2.08c-.433-.365-.539-.676-.96-.92z" fill="#cad9fc"/><path id="Shape" d="m18 44v14c0 .5522847-.4477153 1-1 1h-5v-15z" fill="#a4c2f7"/><path id="Shape" d="m15 44v14c0 .5522847-.4477153 1-1 1h3c.5522847 0 1-.4477153 1-1v-14z" fill="#7facfa"/><path id="Shape" d="m12 44v15h-5c-.55228475 0-1-.4477153-1-1v-14z" fill="#a4c2f7"/><path id="Shape" d="m37 26.92v5.81c-.9879068.1939615-1.9933362.2844502-3 .27-1.0066638.0144502-2.0120932-.0760385-3-.27v-5.81c1.7408476 1.4398677 4.2591524 1.4398677 6 0z" fill="#cad9fc"/><path id="Shape" d="m37 32.73v13.27h-6v-13.27c.9879068.1939615 1.9933362.2844502 3 .27 1.0066638.0144502 2.0120932-.0760385 3-.27z" fill="#e8edfc"/><path id="Shape" d="m34 33v13h3v-13.27c-.9879068.1939615-1.9933362.2844502-3 .27z" fill="#cad9fc"/><path id="Shape" d="m41 46v11c-.0032948 1.1032019-.8967981 1.9967052-2 2h-10c-1.1032019-.0032948-1.9967052-.8967981-2-2v-11z" fill="#a4c2f7"/><path id="Shape" d="m38 46v11c-.0032948 1.1032019-.8967981 1.9967052-2 2h3c1.1032019-.0032948 1.9967052-.8967981 2-2v-11z" fill="#7facfa"/><g fill="#e8edfc"><path id="Shape" d="m34 15v1c0 1.6568542-1.3431458 3-3 3s-3-1.3431458-3-3v-1z"/><path id="Shape" d="m40 15v1c0 1.6568542-1.3431458 3-3 3s-3-1.3431458-3-3v-1z"/><path id="Shape" d="m40 12.84v2.16h-12v-2.16c.0548905-1.6198577 1.4099833-2.88997771 3.03-2.84.7926635-.00410677 1.5574002.2924967 2.14.83h.01c.4613877.4318295 1.1786123.4318295 1.64 0h.01c1.2120936-1.10656997 3.0679064-1.10656997 4.28 0 .5635978.5168493.8861471 1.2453035.89 2.01z"/></g><path id="Shape" d="m45 12 .0000001 6.5c-.0000001-1.3807119-1.1192882-2.5-2.5000001-2.5h-2.5v-3.16c-.0038529-.7646965-.3264022-1.4931507-.89-2.01-1.2120936-1.10656997-3.0679064-1.10656997-4.28 0h-.01c-.4613877.4318295-1.1786123.4318295-1.64 0h-.01c-.5825998-.5375033-1.3473365-.83410677-2.14-.83-1.6200167-.04997771-2.9751095 1.2201423-3.03 2.84v3.16h-2.5c-1.3807119 0-2.5 1.1192881-2.5000001 2.5l.0000001-6.5c-.000675-3.3460441 2.3667716-6.22469155 5.65-6.87.4443916-.08924184.8967449-.13280179 1.35-.13h8c.4532551-.00280179.9056084.04075816 1.35.13 3.2832284.64530845 5.650675 3.5239559 5.65 6.87z" fill="#a4c2f7"/><path id="Shape" d="m39.35 5.13c-1.4428707-.17761907-2.8990975-.22113849-4.35-.13 3.8659932 0 7 3.13400675 7 7v4h.5c1.3807119 0 2.5 1.1192881 2.5000001 2.5l-.0000001-6.5c.000675-3.3460441-2.3667716-6.22469155-5.65-6.87z" fill="#7facfa"/><path id="Shape" d="m4 45v-15c0-2.209139 1.790861-4 4-4 .57377473-1.7388072 2.1700881-2.9360423 4-3v-2.37l.007.007c-.2374305-.3810874-.648334-.6196887-1.097-.637-2.1739134-.0489254-3.91055048-1.8255362-3.91-4v-.64c.00026655-.0955594-.0375763-.1872818-.10514727-.2548527-.06757096-.067571-.15929333-.1054139-.25485273-.1051473-.68368998.0261873-1.34908993-.2242269-1.84587935-.6946714-.49678941-.4704445-.78305289-1.1212268-.79412065-1.8053286v-5c-.00069344-.84948012.43002033-1.64118828 1.14359813-2.10208272s1.61236917-.52790349 2.38640187-.17791728c1.46913801-1.82738509 3.6315127-2.96217903 5.97-3.133-.9954824-.13442558-2.0045176-.13442558-3 0-2.33848732.17082097-4.50086199 1.30561491-5.97 3.133-.7740327-.34998621-1.67282407-.28297716-2.38640187.17791728s-1.14429156 1.2526026-1.14359813 2.10208272v5c.01106776.6841018.29733124 1.3348841.79412065 1.8053286.49678942.4704445 1.16218937.7208587 1.84587935.6946714.0955594-.0002666.18728177.0375763.25485273.1051473.06757097.0675709.10541382.1592933.10514727.2548527v.64c-.00055048 2.1744638 1.7360866 3.9510746 3.91 4 .44974358.0163305.86198128.2550536 1.1.637l-.01-.007v2.37c-1.82991186.0639577-3.42622527 1.2611928-4 3-2.209139 0-4 1.790861-4 4v15c.0032948 1.1032019.89679813 1.9967052 2 2h3c-1.10320187-.0032948-1.9967052-.8967981-2-2z" fill="#fff"/><path id="Shape" d="m9 58v-11h-3v11c0 .5522847.44771525 1 1 1h3c-.55228475 0-1-.4477153-1-1z" fill="#fff"/><path id="Rectangle-path" d="m0 37h2v8h-2z" fill="#fff"/><path id="Shape" d="m10.263 7.2c1.142611-.26698673 2.331389-.26698673 3.474 0 .0855236.02448453.1740406.03693751.263.037.5011076-.00012516.9247499-.37112441.9909781-.86783625.0662283-.49671183-.2454092-.9657484-.7289781-1.09716375-1.4870724-.36099035-3.0389276-.36099035-4.526 0-.53295478.14525089-.84725089.69504522-.702 1.228s.69504522.84725089 1.228.702z" fill="#428dff"/><path id="Shape" d="m1.02 42c-.55228473.0027614-1.00223852-.4427153-1.00499994-.995-.00276143-.5522847.44271521-1.0022385.99499994-1.005h.01c.55228475 0 1 .4477153 1 1s-.44771525 1-1 1z" fill="#428dff"/><path id="Shape" d="m40.111 4.292c-.9322273-2.57208052-3.3751919-4.28512325-6.111-4.28512325s-5.1787727 1.71304273-6.111 4.28512325c-1.5411154.42391376-2.9202159 1.29908537-3.96 2.513-.1845809-.9103119-.7234366-1.70992187-1.4978877-2.22272141s-1.7209771-.69672878-2.6311123-.51127859c-2.0298049-2.10908718-4.8771536-3.23013945-7.8-3.071-2.92284644-.15913945-5.7701951.96191282-7.8 3.071-1.03003536-.2125154-2.10100277.05025776-2.91569634.71539687s-1.28643246 1.66187545-1.28430366 2.71360313v5 .012c-.00805375 1.7368464 1.27774094 3.2082242 3 3.433v.055c.00830122 2.7146009 2.17428355 4.930213 4.888 5 .042 0 .075.035.112.058v1.072c-1.61598177.3539867-2.97512941 1.4399742-3.677 2.938-2.47028928.3340565-4.31552362 2.4392371-4.323 4.932v7c.00000002.5522847.44771526 1 1 1s.99999998-.4477153 1-1v-7c.00455598-1.5070164 1.12852789-2.7757682 2.624-2.962l2.245 2.245c.52914944.5313462 1.27533115.7863563 2.019.69.71914797-.0865233 1.356725-.5036851 1.724-1.128.3612931-.6243969.8313626-1.179133 1.388-1.638.5564256.4590817 1.0264604 1.0137769 1.388 1.638.367275.6243149 1.004852 1.0414767 1.724 1.128.1034843.0131332.2076858.0198128.312.02.6409821.0007785 1.2556419-.2548797 1.707-.71l2.283-2.283h10.277c.022.024.05.047.068.069.069.086.15.18.241.277v.713c-1.7499436.1943906-3.4038147.9001119-4.755 2.029l-6 1.556c-1.3223047.3438471-2.2452542 1.5377202-2.245 2.904v8.452h-10v-10c0-.5522847-.44771525-1-1-1s-1 .4477153-1 1v13h-2c-.55228475 0-1-.4477153-1-1s-.44771525-1-1-1-1 .4477153-1 1c0 1.6568542 1.34314575 3 3 3h2v10c0 1.1045695.8954305 2 2 2h10c1.1045695 0 2-.8954305 2-2v-23.452c-.0004618-.4559907.3076066-.8545465.749-.969l3.339-.866c-.7159278 1.3153483-1.090038 2.7894388-1.088 4.287v7c0 1.6568542 1.3431458 3 3 3h1v10c0 1.6568542 1.3431458 3 3 3h10c1.6568542 0 3-1.3431458 3-3v-10h1c1.6568542 0 3-1.3431458 3-3v-7c.0005858-2.4118196-.9700892-4.722264-2.693-6.41.4515109-.6030939.6947327-1.33662.693-2.09.0110347-1.608099-1.0894983-3.0109262-2.654-3.383.8315327-.8704762 1.3814411-1.9713384 1.578-3.159 1.756252-.1919606 3.0838999-1.679306 3.076-3.446v-.012-6.5c-.0062063-3.60132069-2.4159496-6.75538782-5.889-7.708zm-33.111 40.708h4v13h-4zm6 13v-13h4v13zm21-56c1.5074043-.00011352 2.9161164.74960022 3.758 2h-7.516c.8418836-1.25039978 2.2505957-2.00011352 3.758-2zm0 27c.6819766.003939 1.3592086-.1135607 2-.347v3.228c-1.3286129.1586688-2.6713871.1586688-4 0v-3.228c.6407914.2334393 1.3180234.350939 2 .347zm-2 16v-11.106c1.329588.1413328 2.670412.1413328 4 0v11.106zm-12.353-20c-.7117368-1.4649068-2.0558195-2.5226302-3.647-2.87v-1.067c.040631-.0361454.0918273-.0582369.146-.063 2.7017363-.0846859 4.8493932-2.2969407 4.854-5v-.055c.3465808-.0591698.6831775-.1665441 1-.319v2.874.012c-.0080119 1.7654584 1.3180939 3.2520951 3.073 3.445.1860425 1.1333553.6934647 2.1895016 1.462 3.043zm-9.647-2v-.422c1.2741202.5619639 2.7258798.5619639 4 0v.422c0 1.1045695-.8954305 2-2 2s-2-.8954305-2-2zm11.563-16.562c.2797566.28269198.4367768.66428342.437 1.062v1.839c-.4686189-.22299681-.9810287-.33880142-1.5-.339h-1.5v-1.5c-.0014954-.60796732.3641377-1.15670877.9257993-1.38943782.5616615-.23272906 1.2082539-.1034115 1.6372007.32743782zm-10.563 4.562c0 1.1045695-.8954305 2-2 2s-2-.8954305-2-2zm6 0c0 1.1045695-.8954305 2-2 2s-2-.8954305-2-2zm.984-5.923c-.6300052.64936966-.9828615 1.51824247-.984 2.423v1.5h-10v-1.5c-.00113851-.90475753-.35399482-1.77363034-.984-2.423 1.64451537-1.45129635 3.79397579-2.1973574 5.984-2.077 2.1900242-.1203574 4.3394846.62570365 5.984 2.077zm-15.546 1.36c.42917094-.43026094 1.07554041-.55905821 1.63685344-.32616369s.92663986.78145492.92514656 1.38916369v1.5h-1.5c-.51897132.00019858-1.03138108.11600319-1.5.339v-1.839c.00022595-.39820542.15763346-.7802241.438-1.063zm2.562 9.563v-.645c-.00110146-.7478891-.60711088-1.3538985-1.355-1.355-.72769293.0323352-1.38538156-.4309242-1.6-1.127-.11536708-.4493679-.01630508-.9268305.2683103-1.2932117.28461539-.3663812.72274935-.580443 1.1866897-.5797883h1.5c-.00739616 1.6680192 1.02536392 3.1639686 2.5877074 3.748285 1.56234348.5843165 3.3232998.1332171 4.4122926-1.130285 1.0889928 1.2635021 2.8499491 1.7146015 4.4122926 1.130285 1.5623435-.5843164 2.5951036-2.0802658 2.5877074-3.748285h1.5c.4641158-.0009645.9025384.2129669 1.1873838.5793923.2848453.3664254.3840276.8440694.2686162 1.2936077-.2147117.6964496-.8729428 1.1598016-1.601 1.127-.7478891.0011015-1.3538985.6071109-1.355 1.355v.645c.0005088 1.6280014-1.2975073 2.9593-2.925 3-.6765895.0124811-1.3113087.3300245-1.727.864-.5673423.7199355-1.4333842 1.1400918-2.35 1.1400918s-1.7826577-.4201563-2.35-1.1400918c-.42160033-.5380473-1.06449816-.8558183-1.748-.864-1.61767546-.0539522-2.90089945-1.3814253-2.9-3zm3.636 11.989c-.12965162.0144354-.25900745-.0295383-.353-.12l-2.1-2.1c.41461382-.7958039 1.14177323-1.3831111 2.007-1.621.28374483.9462598.90835574 1.7536576 1.753 2.266-.39974446.4335999-.7520729.9086231-1.051 1.417-.05544206.0902904-.15043614.1489196-.256.158zm7.081-.12c-.0935384.0912049-.2232556.1353014-.353.12-.1052146-.0101367-.199421-.0694793-.254-.16-.2989271-.5083769-.6512555-.9834001-1.051-1.417.8445784-.5119557 1.4692088-1.3190223 1.753-2.265.8654392.2368839 1.5928437.8240266 2.007 1.62zm8.283 16.131v-7c.0066473-3.4756199 2.5603905-6.420937 6-6.92v14.92h-5c-.5522847 0-1-.4477153-1-1zm16 13c0 .5522847-.4477153 1-1 1h-10c-.5522847 0-1-.4477153-1-1v-10h3v6c0 .5522847.4477153 1 1 1s1-.4477153 1-1v-6h2v6c0 .5522847.4477153 1 1 1s1-.4477153 1-1v-6h3zm4-20v7c0 .5522847-.4477153 1-1 1h-5v-14.92c3.4396095.499063 5.9933527 3.4443801 6 6.92zm-2-8.5c-.0027429.3060041-.1002099.6036452-.279.852-1.1286806-.7024864-2.3999124-1.1442232-3.721-1.293v-.713c.091-.1.172-.191.241-.277.018-.022.046-.045.068-.069h2.191c.398314-.0016029.7807768.1559176 1.0624296.4375704s.4391733.6641156.4375704 1.0624296zm1.956-9.627c-.21499.6975729-.8748506 1.1612031-1.604 1.127-.7198539.0056412-1.3138802.5648018-1.363 1.283-.1186042 1.6758835-1.2733033 3.0983737-2.889 3.559-.5632178.1688289-1.0594333.5097803-1.419.975-.1115056.1376327-.2346246.2654355-.368.382-.01.01-.02.018-.03.029-1.347999 1.0292319-3.218001 1.0292319-4.566 0-.01-.011-.02-.019-.03-.029-.1333754-.1165645-.2564944-.2443673-.368-.382-.3593329-.4654668-.8556353-.806478-1.419-.975-1.6156967-.4606263-2.7703958-1.8831165-2.889-3.559-.0496801-.7191181-.6451823-1.2784368-1.366-1.283-.7276929.0323352-1.3853816-.4309242-1.6-1.127-.1153671-.4493679-.0163051-.9268305.2683103-1.2932117s.7227493-.580443 1.1866897-.5797883h1.642c.3615312 1.4376232 1.4942579 2.5538449 2.9370324 2.894237 1.4427746.3403921 2.954976-.1518148 3.9209676-1.276237.9659916 1.1244222 2.478193 1.6166291 3.9209676 1.276237 1.4427745-.3403921 2.5755012-1.4566138 2.9370324-2.894237h1.642c.4641158-.0009645.9025384.2129669 1.1873838.5793923.2848453.3664254.3840276.8440694.2686162 1.2936077zm-4.956-2.873c0 1.1045695-.8954305 2-2 2s-2-.8954305-2-2zm0-2h-10v-1.161c.0565762-1.0665766.9630371-1.8877498 2.03-1.839.5392755-.0031136 1.0598998.1972089 1.458.561l.032.028c.8402711.7591206 2.1187289.7591206 2.959 0l.033-.029c.398252-.3634277.9188592-.5633865 1.458-.56 1.0669629-.0487498 1.9734238.7724234 2.03 1.839zm-6 2c0 1.1045695-.8954305 2-2 2s-2-.8954305-2-2zm11-.661c-.4686189-.2229968-.9810287-.3388014-1.5-.339h-1.5v-2.161c-.0561984-2.1714322-1.8583983-3.88821773-4.03-3.839-1.0359472-.00597824-2.0359588.37938336-2.8 1.079l-.028.025c-.0820686.066979-.1999314.066979-.282 0l-.026-.023c-.7645917-.70154287-1.76635-1.08774143-2.804-1.081-2.1716017-.04921773-3.9738016 1.6675678-4.03 3.839v2.161h-1.5c-.5189713.0001986-1.0313811.1160032-1.5.339v-3.339c.0033074-3.31233757 2.6876624-5.99669262 6-6h8c3.3123376.00330738 5.9966926 2.68766243 6 6z" fill="#428dff"/></g></g></svg>