<svg height="512" viewBox="0 0 60 60" width="512" xmlns="http://www.w3.org/2000/svg"><g id="Page-1" fill="none" fill-rule="evenodd"><g id="023---Inventory" fill-rule="nonzero"><g id="Icons" transform="translate(1 1)"><rect id="Rectangle-path" fill="#e8edfc" height="58" rx="2" width="58"/><path id="Shape" d="m56 0h-3c1.1045695 0 2 .8954305 2 2v54c0 1.1045695-.8954305 2-2 2h3c1.1045695 0 2-.8954305 2-2v-54c0-1.1045695-.8954305-2-2-2z" fill="#cad9fc"/><rect id="Rectangle-path" fill="#a4c2f7" height="16" rx="1" width="16" x="4" y="4"/><path id="Shape" d="m19 4h-3c.5522847 0 1 .44771525 1 1v14c0 .5522847-.4477153 1-1 1h3c.5522847 0 1-.4477153 1-1v-14c0-.55228475-.4477153-1-1-1z" fill="#7facfa"/><rect id="Rectangle-path" fill="#a4c2f7" height="12" rx="1" width="12" x="4" y="24"/><path id="Shape" d="m15 24h-3c.5522847 0 1 .4477153 1 1v10c0 .5522847-.4477153 1-1 1h3c.5522847 0 1-.4477153 1-1v-10c0-.5522847-.4477153-1-1-1z" fill="#7facfa"/><rect id="Rectangle-path" fill="#a4c2f7" height="12" rx="1" width="12" x="23" y="24"/><path id="Shape" d="m34 24h-3c.5522847 0 1 .4477153 1 1v10c0 .5522847-.4477153 1-1 1h3c.5522847 0 1-.4477153 1-1v-10c0-.5522847-.4477153-1-1-1z" fill="#7facfa"/><rect id="Rectangle-path" fill="#a4c2f7" height="12" rx="1" width="12" x="42" y="24"/><path id="Shape" d="m53 24h-3c.5522847 0 1 .4477153 1 1v10c0 .5522847-.4477153 1-1 1h3c.5522847 0 1-.4477153 1-1v-10c0-.5522847-.4477153-1-1-1z" fill="#7facfa"/><rect id="Rectangle-path" fill="#a4c2f7" height="12" rx="1" width="12" x="4" y="42"/><path id="Shape" d="m15 42h-3c.5522847 0 1 .4477153 1 1v10c0 .5522847-.4477153 1-1 1h3c.5522847 0 1-.4477153 1-1v-10c0-.5522847-.4477153-1-1-1z" fill="#7facfa"/><rect id="Rectangle-path" fill="#a4c2f7" height="12" rx="1" width="12" x="23" y="42"/><path id="Shape" d="m34 42h-3c.5522847 0 1 .4477153 1 1v10c0 .5522847-.4477153 1-1 1h3c.5522847 0 1-.4477153 1-1v-10c0-.5522847-.4477153-1-1-1z" fill="#7facfa"/><rect id="Rectangle-path" fill="#a4c2f7" height="12" rx="1" width="12" x="42" y="42"/><path id="Shape" d="m53 42h-3c.5522847 0 1 .4477153 1 1v10c0 .5522847-.4477153 1-1 1h3c.5522847 0 1-.4477153 1-1v-10c0-.5522847-.4477153-1-1-1z" fill="#7facfa"/><path id="Shape" d="m16 8v3.5c0 1.9329966-1.5670034 3.5-3.5 3.5s-3.5-1.5670034-3.5-3.5c0-1.93299662 1.5670034-3.5 3.5-3.5z" fill="#e8edfc"/></g><g id="Icons_copy_2" fill="#fff" transform="translate(1 1)"><path id="Shape" d="m2 58h3c-1.1045695 0-2-.8954305-2-2v-54c0-1.1045695.8954305-2 2-2h-3c-1.1045695 0-2 .8954305-2 2v54c0 1.1045695.8954305 2 2 2z"/></g><g id="Icons_copy"><path id="Rectangle-path" d="m0 49h2v8h-2z" fill="#fff"/><g fill="#428dff"><circle id="Oval" cx="1" cy="53" r="1"/><path id="Shape" d="m57 0h-54c-1.65685425 0-3 1.34314575-3 3v46c0 .5522847.44771525 1 1 1s1-.4477153 1-1v-46c0-.55228475.44771525-1 1-1h54c.5522847 0 1 .44771525 1 1v54c0 .5522847-.4477153 1-1 1h-54c-.55228475 0-1-.4477153-1-1s-.44771525-1-1-1-1 .4477153-1 1c0 1.6568542 1.34314575 3 3 3h54c1.6568542 0 3-1.3431458 3-3v-54c0-1.65685425-1.3431458-3-3-3z"/><path id="Shape" d="m52.293 7.707c.3904999.39038194 1.0235001.39038194 1.414 0l.293-.293.293.293c.3923789.37897221 1.0160848.37355237 1.4018186-.01218142.3857338-.3857338.3911536-1.00943969.0121814-1.40181858l-.293-.293.293-.293c.2599566-.25107447.3642126-.62287789.2726972-.97250732-.0915155-.34962944-.3645604-.6226744-.7141899-.71418984-.3496294-.09151544-.7214328.01274058-.9725073.27269716l-.293.293-.293-.293c-.3923789-.37897221-1.0160848-.37355237-1.4018186.01218142-.3857338.3857338-.3911536 1.00943969-.0121814 1.40181858l.293.293-.293.293c-.3903819.39049985-.3903819 1.02350015 0 1.414z"/><path id="Shape" d="m6 22h14c1.1045695 0 2-.8954305 2-2v-14c0-1.1045695-.8954305-2-2-2h-14c-1.1045695 0-2 .8954305-2 2v14c0 1.1045695.8954305 2 2 2zm0-16h14v14h-14z"/><path id="Shape" d="m34 5h-9c-.5522847 0-1 .44771525-1 1s.4477153 1 1 1h9c.5522847 0 1-.44771525 1-1s-.4477153-1-1-1z"/><path id="Shape" d="m25 13h3c.5522847 0 1-.4477153 1-1s-.4477153-1-1-1h-3c-.5522847 0-1 .4477153-1 1s.4477153 1 1 1z"/><path id="Shape" d="m31 12c0 .5522847.4477153 1 1 1h7c.5522847 0 1-.4477153 1-1s-.4477153-1-1-1h-7c-.5522847 0-1 .4477153-1 1z"/><path id="Shape" d="m25 17h16c.5522847 0 1-.4477153 1-1s-.4477153-1-1-1h-16c-.5522847 0-1 .4477153-1 1s.4477153 1 1 1z"/><path id="Shape" d="m25 21h3c.5522847 0 1-.4477153 1-1s-.4477153-1-1-1h-3c-.5522847 0-1 .4477153-1 1s.4477153 1 1 1z"/><path id="Shape" d="m32 19c-.5522847 0-1 .4477153-1 1s.4477153 1 1 1h7c.5522847 0 1-.4477153 1-1s-.4477153-1-1-1z"/><path id="Shape" d="m4 36c0 1.1045695.8954305 2 2 2h10c1.1045695 0 2-.8954305 2-2v-10c0-1.1045695-.8954305-2-2-2h-10c-1.1045695 0-2 .8954305-2 2zm2-10h10v10h-10z"/><path id="Shape" d="m23 26v10c0 1.1045695.8954305 2 2 2h10c1.1045695 0 2-.8954305 2-2v-10c0-1.1045695-.8954305-2-2-2h-10c-1.1045695 0-2 .8954305-2 2zm2 0h10v10h-10z"/><path id="Shape" d="m42 26v10c0 1.1045695.8954305 2 2 2h10c1.1045695 0 2-.8954305 2-2v-10c0-1.1045695-.8954305-2-2-2h-10c-1.1045695 0-2 .8954305-2 2zm12 10h-10v-10h10z"/><path id="Shape" d="m4 54c0 1.1045695.8954305 2 2 2h10c1.1045695 0 2-.8954305 2-2v-10c0-1.1045695-.8954305-2-2-2h-10c-1.1045695 0-2 .8954305-2 2zm2-10h10v10h-10z"/><path id="Shape" d="m23 54c0 1.1045695.8954305 2 2 2h10c1.1045695 0 2-.8954305 2-2v-10c0-1.1045695-.8954305-2-2-2h-10c-1.1045695 0-2 .8954305-2 2zm2-10h10v10h-10z"/><path id="Shape" d="m54 42h-10c-1.1045695 0-2 .8954305-2 2v10c0 1.1045695.8954305 2 2 2h10c1.1045695 0 2-.8954305 2-2v-10c0-1.1045695-.8954305-2-2-2zm-10 12v-10h10v10z"/><path id="Shape" d="m17 8h-3.5c-2.4841391.00275556-4.49724444 2.0158609-4.5 4.5.00225762.8456349.24504054 1.6731779.7 2.386l-1.407 1.407c-.25995658.2510745-.3642126.6228779-.27269716.9725073.09151544.3496295.3645604.6226744.71418984.7141899.34962943.0915154.72143285-.0127406.97250732-.2726972l1.407-1.407c.7128221.4549595 1.5403651.6977424 2.386.7 2.4841391-.0027556 4.4972444-2.0158609 4.5-4.5v-3.5c0-.55228475-.4477153-1-1-1zm-1 4.5c-.0017747 1.0065694-.6070411 1.9139005-1.5357242 2.3021437-.9286831.3882433-1.9996279.1816654-2.7172758-.5241437 0 0-.006-.01-.01-.015s-.011-.005-.015-.01c-.7058091-.7176479-.912387-1.7885927-.5241437-2.7172758.3882432-.9286831 1.2955743-1.5339495 2.3021437-1.5357242h2.5z"/><path id="Shape" d="m12.293 28.293-4 4c-.25995658.2510745-.3642126.6228779-.27269716.9725073.09151544.3496295.3645604.6226744.71418984.7141899.34962943.0915154.72143285-.0127406.97250732-.2726972l4-4c.3789722-.3923789.3735524-1.0160848-.0121814-1.4018186s-1.0094397-.3911536-1.4018186-.0121814z"/><path id="Shape" d="m31.293 28.293-4 4c-.2599566.2510745-.3642126.6228779-.2726972.9725073.0915155.3496295.3645604.6226744.7141899.7141899.3496294.0915154.7214328-.0127406.9725073-.2726972l4-4c.3789722-.3923789.3735524-1.0160848-.0121814-1.4018186s-1.0094397-.3911536-1.4018186-.0121814z"/></g></g></g></g></svg>