<svg xmlns="http://www.w3.org/2000/svg" viewBox="0 0 512 512"><circle cx="256" cy="246.154" r="246.154" fill="#a4c2f7"/><ellipse cx="256" cy="246.154" rx="216.615" ry="246.154" fill="#e3e7f2"/><path d="M39.385 246.154C39.385 110.207 136.367 0 256 0 120.053 0 9.846 110.207 9.846 246.154S120.053 492.308 256 492.308c-119.633 0-216.615-110.207-216.615-246.154z" fill="#fff"/><g fill="#428dff"><path d="M256 512C114.615 512 0 397.385 0 256S114.615 0 256 0s256 114.615 256 256c-.158 141.319-114.681 255.842-256 256zm0-492.308C125.491 19.692 19.692 125.491 19.692 256S125.491 492.308 256 492.308 492.308 386.509 492.308 256C492.158 125.553 386.447 19.842 256 19.692z"/><path d="M167.385 354.462a9.848 9.848 0 01-6.962-16.807l177.231-177.231a9.843 9.843 0 0116.542 4.379 9.844 9.844 0 01-2.619 9.544l-177.231 177.23a9.818 9.818 0 01-6.961 2.885z"/><path d="M344.615 354.462a9.812 9.812 0 01-6.961-2.885L160.423 174.346c-3.785-3.855-3.757-10.04.063-13.86 3.82-3.82 10.005-3.848 13.86-.063l177.231 177.231a9.846 9.846 0 01-6.962 16.808z"/></g></svg>