<svg xmlns="http://www.w3.org/2000/svg" viewBox="0 0 511.997 511.997"><path fill="#fff" d="M255.999 396.073L10.084 255.572l93.281-52.968 152.634 87.205z"/><path fill="#a4c2f7" d="M255.999 9.658l245.914 139.65-245.914 140.501z"/><path fill="#fff" d="M255.999 289.383L10.084 149.733 255.999 9.232z"/><linearGradient id="a" gradientUnits="userSpaceOnUse" x1="-49.302" y1="651.964" x2="-48.302" y2="651.964" gradientTransform="matrix(395.2253 0 0 -260.8302 19543.896 170201.688)"><stop offset="0" stop-color="#d4e1f4"/><stop offset=".172" stop-color="#d4e1f4"/><stop offset=".2" stop-color="#d4e1f4"/><stop offset=".2" stop-color="#dae4f4"/><stop offset=".201" stop-color="#ebebf4"/><stop offset=".201" stop-color="#f6f1f4"/><stop offset=".202" stop-color="#fdf4f4"/><stop offset=".205" stop-color="#fff5f4"/><stop offset=".252" stop-color="#fff5f4"/><stop offset=".26" stop-color="#fff5f4"/><stop offset=".26" stop-color="#d4e1f4"/><stop offset=".397" stop-color="#d4e1f4"/><stop offset=".42" stop-color="#d4e1f4"/><stop offset=".42" stop-color="#dae4f4"/><stop offset=".421" stop-color="#ebebf4"/><stop offset=".421" stop-color="#f6f1f4"/><stop offset=".422" stop-color="#fdf4f4"/><stop offset=".425" stop-color="#fff5f4"/><stop offset=".489" stop-color="#fff5f4"/><stop offset=".5" stop-color="#fff5f4"/><stop offset=".5" stop-color="#f9f2f4"/><stop offset=".5" stop-color="#e8ebf4"/><stop offset=".5" stop-color="#dde5f4"/><stop offset=".5" stop-color="#d6e2f4"/><stop offset=".501" stop-color="#d4e1f4"/><stop offset=".706" stop-color="#d4e1f4"/><stop offset=".74" stop-color="#d4e1f4"/><stop offset=".741" stop-color="#fff5f4"/><stop offset=".835" stop-color="#fff5f4"/><stop offset=".85" stop-color="#fff5f4"/><stop offset=".851" stop-color="#d4e1f4"/></linearGradient><path fill="url(#a)" d="M453.611 149.308l-197.612 130.84-197.613-130.84 197.613-129.99z"/><path fill="#a4c2f7" d="M255.999 396.073l245.914-140.501-93.28-52.968-152.634 87.205z"/><path fill="#e3e7f2" d="M251.594 289.809l-119.915-71.623-93.28 52.968 213.195 124.919 212.528-125.585-86.943-48.302z"/><path fill="#fff" d="M255.999 502.598L10.084 362.097l93.281-52.968 152.634 87.204z"/><path fill="#a4c2f7" d="M255.999 502.598l245.914-140.501-93.28-52.968-152.634 87.204z"/><path fill="#e3e7f2" d="M251.594 396.333l-119.915-71.612-93.28 52.968 213.195 124.909 212.528-125.585-86.943-48.302z"/><g fill="#428dff"><path d="M255.999 299.469a9.654 9.654 0 01-4.793-1.274L5.291 157.695a9.661 9.661 0 01-.01-16.769l125.585-72.028c4.625-2.605 10.485-.991 13.123 3.615a9.66 9.66 0 01-3.52 13.149L29.527 149.294l226.472 129.387 226.396-129.349L255.866 20.691l-57.67 30.943c-4.701 2.51-10.546.739-13.064-3.957-2.518-4.696-.759-10.544 3.932-13.072l62.368-33.462a9.693 9.693 0 019.34.113l245.915 139.651a9.662 9.662 0 01.019 16.787l-245.916 140.5a9.634 9.634 0 01-4.791 1.275z"/><path d="M255.999 405.733a9.654 9.654 0 01-4.793-1.274L5.291 263.959a9.66 9.66 0 01.019-16.787L98.593 194.2a9.666 9.666 0 019.566.014l147.84 84.467 147.849-84.467a9.666 9.666 0 019.566-.014l93.274 52.972a9.66 9.66 0 01.019 16.787l-245.916 140.5a9.65 9.65 0 01-4.792 1.274zM29.602 255.596l226.397 129.349 226.396-129.349-73.736-41.878-147.869 84.477a9.654 9.654 0 01-9.585 0l-147.858-84.476-73.745 41.877z"/><path d="M255.999 511.997a9.654 9.654 0 01-4.793-1.274L5.291 370.224a9.66 9.66 0 01.019-16.787l93.283-52.972a9.666 9.666 0 019.566.014l147.84 84.467 147.849-84.467a9.666 9.666 0 019.566-.014l93.274 52.972a9.66 9.66 0 01.019 16.787l-245.916 140.5a9.66 9.66 0 01-4.792 1.273zM29.602 361.86l226.397 129.349L482.394 361.86l-73.736-41.878-147.868 84.477a9.654 9.654 0 01-9.585 0l-147.858-84.476-73.745 41.877z"/><circle cx="164.67" cy="57.959" r="9.66"/></g></svg>