<svg height="512" viewBox="0 0 46 60" width="512" xmlns="http://www.w3.org/2000/svg"><g fill="none"><path d="M23 12.5a2.545 2.545 0 01-2.64 2.5.359.359 0 00-.36.36V16a3.994 3.994 0 01-3.91 4 1.422 1.422 0 00-1.09.63 3.97 3.97 0 01-6 0A1.394 1.394 0 007.91 20 4 4 0 014 16v-.64a.359.359 0 00-.36-.36A2.543 2.543 0 011 12.5 2.5 2.5 0 013.5 10H6v1a3 3 0 006 0 3 3 0 006 0v-1h2.5a2.5 2.5 0 012.5 2.5z" fill="#e8edfc"/><path d="M20.5 10H18v.05a2.5 2.5 0 012 2.45 2.545 2.545 0 01-2.64 2.5.359.359 0 00-.36.36V16a3.994 3.994 0 01-3.91 4 1.422 1.422 0 00-1.09.63c-.405.474-.92.841-1.5 1.07a3.964 3.964 0 004.5-1.07 1.422 1.422 0 011.09-.63A3.994 3.994 0 0020 16v-.64a.359.359 0 01.36-.36A2.545 2.545 0 0023 12.5a2.5 2.5 0 00-2.5-2.5z" fill="#cad9fc"/><path d="M12 10v1a3 3 0 01-6 0v-1z" fill="#e8edfc"/><path d="M23 7.5v5a2.5 2.5 0 00-2.5-2.5H18V7.5a2.5 2.5 0 115 0zm-17 0V10H3.5A2.5 2.5 0 001 12.5v-5A2.492 2.492 0 013.5 5 2.494 2.494 0 016 7.5z" fill="#a4c2f7"/><path d="M19.47 5.22A2.515 2.515 0 0018 7.5V10H6V7.5a2.515 2.515 0 00-1.47-2.28C5.77 3.63 8.01 2 12 2s6.23 1.63 7.47 3.22z" fill="#e8edfc"/><path d="M12 2c-.501 0-1.002.03-1.5.087a8.45 8.45 0 015.97 3.133A2.515 2.515 0 0015 7.5V10h3V7.5a2.515 2.515 0 011.47-2.28C18.23 3.63 15.99 2 12 2z" fill="#cad9fc"/><path d="M18 10v1a3 3 0 01-6 0v-1z" fill="#e8edfc"/><path d="M15 20.63V23a3 3 0 01-6 0v-2.37a3.97 3.97 0 006 0z" fill="#cad9fc"/><path d="M12 26a6.261 6.261 0 00-2.25 2.34 1.39 1.39 0 01-2.17.24L5 26a4.373 4.373 0 014-3 3 3 0 003 3zm33-7.5a2.545 2.545 0 01-2.64 2.5.364.364 0 00-.37.35 4.989 4.989 0 01-3.62 4.45 1.3 1.3 0 00-.41.2c-.434.251-.516.546-.96.92a4.688 4.688 0 01-6 0c-.433-.365-.539-.676-.96-.92a1.3 1.3 0 00-.41-.2 4.989 4.989 0 01-3.62-4.45.362.362 0 00-.37-.35A2.543 2.543 0 0123 18.5a2.5 2.5 0 012.5-2.5H28a3 3 0 006 0 3 3 0 006 0h2.5a2.5 2.5 0 012.5 2.5z" fill="#e8edfc"/><path d="M42.5 16H40c0 .017-.005.033-.005.05a2.506 2.506 0 011.935 3.05 2.6 2.6 0 01-2.57 1.9.364.364 0 00-.37.35 4.989 4.989 0 01-3.62 4.45c-.957.255-1.015 1.357-2.87 1.957a4.632 4.632 0 004.5-.837c.433-.365.539-.676.96-.92a1.3 1.3 0 01.41-.2 4.989 4.989 0 003.62-4.45.362.362 0 01.37-.35A2.543 2.543 0 0045 18.5a2.5 2.5 0 00-2.5-2.5z" fill="#cad9fc"/><path d="M39.35 5.13A6.648 6.648 0 0038 5h-8a6.648 6.648 0 00-1.35.13 5.53 5.53 0 0110.7 0z" fill="#a4c2f7"/><path d="M31 29v17h-6a2.006 2.006 0 01-2-2v-7c0-2.122.841-4.158 2.34-5.66.12-.12.24-.23.37-.34 1.46-1.29 3.342-2 5.29-2z" fill="#e8edfc"/><path d="M28 29.589V46h3V29c-1.029 0-2.048.2-3 .589z" fill="#cad9fc"/><path d="M45 37v7a2.006 2.006 0 01-2 2h-6V29a8.01 8.01 0 018 8z" fill="#e8edfc"/><path d="M41.82 30.62A7.926 7.926 0 0037 29v.608A7.892 7.892 0 0142 37v7a2.006 2.006 0 01-2 2h3a2.006 2.006 0 002-2v-7a7.964 7.964 0 00-3.18-6.38z" fill="#cad9fc"/><path d="M43 28.5a2.482 2.482 0 01-1.18 2.12A7.926 7.926 0 0037 29v-2.08c.169-.144.323-.305.46-.48a1.91 1.91 0 01.5-.44h2.54a2.492 2.492 0 012.5 2.5z" fill="#e8edfc"/><path d="M42.27 26.73A2.5 2.5 0 0040.5 26h-2.54c-.02.011-.036.028-.055.041A2.472 2.472 0 0140 28.5a2.458 2.458 0 01-.231 1.007 7.935 7.935 0 012.051 1.113 2.5 2.5 0 00.45-3.89z" fill="#cad9fc"/><path d="M19 26l-2.58 2.58a1.39 1.39 0 01-2.17-.24A6.261 6.261 0 0012 26a3 3 0 003-3 4.373 4.373 0 014 3z" fill="#e8edfc"/><path d="M31 26.92V29c-1.948 0-3.83.71-5.29 2l-6.21 1.61a2.011 2.011 0 00-1.5 1.94V44H6v3H3a2.006 2.006 0 01-2-2V30a4 4 0 014-4l2.58 2.58a1.39 1.39 0 002.17-.24A6.261 6.261 0 0112 26a6.261 6.261 0 012.25 2.34 1.39 1.39 0 002.17.24L19 26h11.04c.191.116.36.265.5.44.137.175.291.336.46.48z" fill="#e8edfc"/><path d="M30.04 26h-3c.434.251.516.546.96.92V29c-1.948 0-3.83.71-5.29 2l-6.21 1.61a2.011 2.011 0 00-1.5 1.94V44h3v-9.45a2.011 2.011 0 011.5-1.94L25.71 31c1.46-1.29 3.342-2 5.29-2v-2.08c-.433-.365-.539-.676-.96-.92z" fill="#cad9fc"/><path d="M18 44v14a1 1 0 01-1 1h-5V44z" fill="#a4c2f7"/><path d="M15 44v14a1 1 0 01-1 1h3a1 1 0 001-1V44z" fill="#7facfa"/><path d="M12 44v15H7a1 1 0 01-1-1V44z" fill="#a4c2f7"/><path d="M37 26.92v5.81c-.988.194-1.993.284-3 .27a14.492 14.492 0 01-3-.27v-5.81a4.707 4.707 0 006 0z" fill="#cad9fc"/><path d="M37 32.73V46h-6V32.73c.988.194 1.993.284 3 .27a14.492 14.492 0 003-.27z" fill="#e8edfc"/><path d="M34 33v13h3V32.73c-.988.194-1.993.284-3 .27z" fill="#cad9fc"/><path d="M41 46v11a2.006 2.006 0 01-2 2H29a2.006 2.006 0 01-2-2V46z" fill="#a4c2f7"/><path d="M38 46v11a2.006 2.006 0 01-2 2h3a2.006 2.006 0 002-2V46z" fill="#7facfa"/><path d="M34 15v1a3 3 0 01-6 0v-1zm6 0v1a3 3 0 01-6 0v-1zm0-2.16V15H28v-2.16A2.941 2.941 0 0131.03 10a3.132 3.132 0 012.14.83h.01a1.2 1.2 0 001.64 0h.01a3.174 3.174 0 014.28 0c.564.517.886 1.245.89 2.01z" fill="#e8edfc"/><path d="M45 12v6.5a2.5 2.5 0 00-2.5-2.5H40v-3.16a2.746 2.746 0 00-.89-2.01 3.174 3.174 0 00-4.28 0h-.01a1.2 1.2 0 01-1.64 0h-.01a3.132 3.132 0 00-2.14-.83A2.941 2.941 0 0028 12.84V16h-2.5a2.5 2.5 0 00-2.5 2.5V12a7 7 0 017-7h8a7 7 0 017 7z" fill="#a4c2f7"/><path d="M39.35 5.13A23.53 23.53 0 0035 5a7 7 0 017 7v4h.5a2.5 2.5 0 012.5 2.5V12a7 7 0 00-5.65-6.87z" fill="#7facfa"/><path d="M4 45V30a4 4 0 014-4 4.373 4.373 0 014-3v-2.37l.007.007A1.354 1.354 0 0010.91 20 4 4 0 017 16v-.64a.359.359 0 00-.36-.36A2.543 2.543 0 014 12.5v-5a2.5 2.5 0 013.53-2.28 8.45 8.45 0 015.97-3.133 11.209 11.209 0 00-3 0A8.45 8.45 0 004.53 5.22 2.5 2.5 0 001 7.5v5A2.543 2.543 0 003.64 15a.359.359 0 01.36.36V16a4 4 0 003.91 4c.45.016.862.255 1.1.637L9 20.63V23a4.373 4.373 0 00-4 3 4 4 0 00-4 4v15a2.006 2.006 0 002 2h3a2.006 2.006 0 01-2-2zm5 13V47H6v11a1 1 0 001 1h3a1 1 0 01-1-1z" fill="#fff"/><path d="M0 37h2v8H0z" fill="#fff"/><path d="M10.263 7.2a7.634 7.634 0 013.474 0 1 1 0 10.525-1.928 9.593 9.593 0 00-4.526 0 1 1 0 00.526 1.93zM1.02 42a1 1 0 01-.01-2h.01a1 1 0 010 2z" fill="#428dff"/><path d="M40.111 4.292a6.5 6.5 0 00-12.222 0 8.012 8.012 0 00-3.96 2.513A3.5 3.5 0 0019.8 4.071 10.066 10.066 0 0012 1c-2.923-.16-5.77.962-7.8 3.071A3.494 3.494 0 000 7.5v5.012a3.446 3.446 0 003 3.433V16a5.017 5.017 0 004.888 5c.042 0 .075.035.112.058v1.072a5.317 5.317 0 00-3.677 2.938A4.992 4.992 0 000 30v7a1 1 0 002 0v-7a2.994 2.994 0 012.624-2.962l2.245 2.245c.53.531 1.275.786 2.019.69a2.322 2.322 0 001.724-1.128A6.049 6.049 0 0112 27.207a6.063 6.063 0 011.388 1.638 2.322 2.322 0 001.724 1.128 2.4 2.4 0 002.019-.69L19.414 27h10.277c.022.024.05.047.068.069.069.086.15.18.241.277v.713c-1.75.194-3.404.9-4.755 2.029l-6 1.556A3 3 0 0017 34.548V43H7V33a1 1 0 00-2 0v13H3a1 1 0 01-1-1 1 1 0 00-2 0 3 3 0 003 3h2v10a2 2 0 002 2h10a2 2 0 002-2V34.548a1 1 0 01.749-.969l3.339-.866A8.942 8.942 0 0022 37v7a3 3 0 003 3h1v10a3 3 0 003 3h10a3 3 0 003-3V47h1a3 3 0 003-3v-7a8.97 8.97 0 00-2.693-6.41A3.474 3.474 0 0044 28.5a3.453 3.453 0 00-2.654-3.383 5.989 5.989 0 001.578-3.159A3.451 3.451 0 0046 18.512V12a8.007 8.007 0 00-5.889-7.708zM7 45h4v13H7zm6 13V45h4v13zM34 2a4.53 4.53 0 013.758 2h-7.516A4.53 4.53 0 0134 2zm0 27a5.746 5.746 0 002-.347v3.228a16.866 16.866 0 01-4 0v-3.228c.64.233 1.318.35 2 .347zm-2 16V33.894c1.33.141 2.67.141 4 0V45zM19.647 25A5.315 5.315 0 0016 22.13v-1.067a.253.253 0 01.146-.063A5.011 5.011 0 0021 16v-.055c.347-.06.683-.167 1-.319v2.886a3.45 3.45 0 003.073 3.445A6 6 0 0026.535 25zM10 23v-.422a4.956 4.956 0 004 0V23a2 2 0 11-4 0zM21.563 6.438c.28.283.437.664.437 1.062v1.839A3.494 3.494 0 0020.5 9H19V7.5a1.5 1.5 0 012.563-1.062zM11 11a2 2 0 11-4 0zm6 0a2 2 0 11-4 0zm.984-5.923A3.486 3.486 0 0017 7.5V9H7V7.5a3.486 3.486 0 00-.984-2.423A8.351 8.351 0 0112 3c2.19-.12 4.34.626 5.984 2.077zM2.438 6.437A1.5 1.5 0 015 7.5V9H3.5c-.519 0-1.031.116-1.5.339V7.5c0-.398.158-.78.438-1.063zM5 16v-.645A1.357 1.357 0 003.645 14a1.6 1.6 0 01-1.6-1.127A1.5 1.5 0 013.5 11H5a3.983 3.983 0 007 2.618A3.983 3.983 0 0019 11h1.5a1.5 1.5 0 011.456 1.873A1.6 1.6 0 0120.355 14 1.357 1.357 0 0019 15.355V16a3 3 0 01-2.925 3 2.241 2.241 0 00-1.727.864 2.992 2.992 0 01-4.7 0A2.255 2.255 0 007.9 19 3 3 0 015 16zm3.636 11.989a.439.439 0 01-.353-.12l-2.1-2.1a3.228 3.228 0 012.007-1.621 3.991 3.991 0 001.753 2.266 8.31 8.31 0 00-1.051 1.417.334.334 0 01-.256.158zm7.081-.12a.433.433 0 01-.353.12.334.334 0 01-.254-.16 8.289 8.289 0 00-1.051-1.417 3.989 3.989 0 001.753-2.265 3.221 3.221 0 012.007 1.62zM24 44v-7a7.006 7.006 0 016-6.92V45h-5a1 1 0 01-1-1zm16 13a1 1 0 01-1 1H29a1 1 0 01-1-1V47h3v6a1 1 0 002 0v-6h2v6a1 1 0 002 0v-6h3zm4-20v7a1 1 0 01-1 1h-5V30.08A7.006 7.006 0 0144 37zm-2-8.5a1.48 1.48 0 01-.279.852A8.934 8.934 0 0038 28.059v-.713c.091-.1.172-.191.241-.277.018-.022.046-.045.068-.069H40.5a1.494 1.494 0 011.5 1.5zm1.956-9.627A1.6 1.6 0 0142.352 20a1.377 1.377 0 00-1.363 1.283 3.994 3.994 0 01-2.889 3.559c-.563.169-1.06.51-1.419.975a3.094 3.094 0 01-.368.382l-.03.029a3.762 3.762 0 01-4.566 0l-.03-.029a3.094 3.094 0 01-.368-.382 2.81 2.81 0 00-1.419-.975 3.994 3.994 0 01-2.889-3.559A1.378 1.378 0 0025.645 20a1.6 1.6 0 01-1.6-1.127A1.5 1.5 0 0125.5 17h1.642A3.968 3.968 0 0034 18.618 3.968 3.968 0 0040.858 17H42.5a1.5 1.5 0 011.456 1.873zM39 16a2 2 0 11-4 0zm0-2H29v-1.161A1.944 1.944 0 0131.03 11c.54-.003 1.06.197 1.458.561l.032.028c.84.76 2.119.76 2.959 0l.033-.029A2.143 2.143 0 0136.97 11 1.944 1.944 0 0139 12.839zm-6 2a2 2 0 11-4 0zm11-.661A3.494 3.494 0 0042.5 15H41v-2.161A3.942 3.942 0 0036.97 9a4.111 4.111 0 00-2.8 1.079l-.028.025a.223.223 0 01-.282 0l-.026-.023A4.108 4.108 0 0031.03 9 3.942 3.942 0 0027 12.839V15h-1.5c-.519 0-1.031.116-1.5.339V12a6.006 6.006 0 016-6h8a6.006 6.006 0 016 6z" fill="#428dff"/></g></svg>