<svg xmlns="http://www.w3.org/2000/svg" viewBox="0 0 512 512"><circle cx="443.733" cy="256" r="59.733" fill="#a4c2f7"/><ellipse cx="430.933" cy="256" rx="46.933" ry="59.733" fill="#e3e7f2"/><path d="M443.733 315.733a59.852 59.852 0 007.167-.47c-23.258-3.548-41.299-28.705-41.299-59.263 0-30.56 18.042-55.717 41.303-59.264a59.716 59.716 0 10-7.171 118.997z" fill="#fff"/><circle cx="256" cy="256" r="59.733" fill="#a4c2f7"/><ellipse cx="243.2" cy="256" rx="46.933" ry="59.733" fill="#e3e7f2"/><path d="M256.001 315.733a59.852 59.852 0 007.167-.47c-23.258-3.548-41.299-28.705-41.299-59.263 0-30.56 18.042-55.717 41.303-59.264a59.716 59.716 0 10-7.171 118.997z" fill="#fff"/><circle cx="68.267" cy="256" r="59.733" fill="#a4c2f7"/><ellipse cx="55.467" cy="256" rx="46.933" ry="59.733" fill="#e3e7f2"/><path d="M68.267 315.733a60.059 60.059 0 007.167-.469c-23.258-3.548-41.299-28.705-41.299-59.263 0-30.56 18.042-55.717 41.303-59.264a59.718 59.718 0 00-60.058 87.046 59.715 59.715 0 0052.887 31.95z" fill="#fff"/><path d="M68.267 324.267C30.564 324.267 0 293.703 0 256c0-37.703 30.564-68.267 68.267-68.267s68.267 30.564 68.267 68.267c-.044 37.685-30.583 68.224-68.267 68.267zm0-119.467c-28.277 0-51.2 22.923-51.2 51.2s22.923 51.2 51.2 51.2 51.2-22.923 51.2-51.2c-.031-28.264-22.936-51.169-51.2-51.2zm375.466 119.467c-37.703 0-68.267-30.564-68.267-68.267 0-37.703 30.564-68.267 68.267-68.267S512 218.297 512 256c-.043 37.685-30.582 68.224-68.267 68.267zm0-119.467c-28.277 0-51.2 22.923-51.2 51.2s22.923 51.2 51.2 51.2c28.277 0 51.2-22.923 51.2-51.2-.031-28.264-22.935-51.169-51.2-51.2zM256 324.267c-37.703 0-68.267-30.564-68.267-68.267 0-37.703 30.564-68.267 68.267-68.267 37.703 0 68.267 30.564 68.267 68.267-.043 37.685-30.582 68.224-68.267 68.267zm0-119.467c-28.277 0-51.2 22.923-51.2 51.2s22.923 51.2 51.2 51.2c28.277 0 51.2-22.923 51.2-51.2-.031-28.264-22.936-51.169-51.2-51.2z" fill="#428dff"/></svg>