<svg xmlns="http://www.w3.org/2000/svg" viewBox="0 0 512 512"><g fill="#a4c2f7"><circle cx="256" cy="68.267" r="59.733"/><circle cx="256" cy="443.733" r="59.733"/><circle cx="256" cy="256" r="59.733"/></g><ellipse cx="243.2" cy="68.267" rx="46.933" ry="59.733" fill="#e3e7f2"/><path d="M256 128a60.059 60.059 0 007.167-.469c-23.258-3.549-41.299-28.705-41.299-59.263 0-30.56 18.042-55.717 41.303-59.264A59.716 59.716 0 10256 128z" fill="#fff"/><g fill="#e3e7f2"><ellipse cx="243.2" cy="443.733" rx="46.933" ry="59.733"/><ellipse cx="243.2" cy="256" rx="46.933" ry="59.733"/></g><path d="M256 315.733a59.852 59.852 0 007.167-.47c-23.258-3.548-41.299-28.705-41.299-59.263 0-30.56 18.042-55.717 41.303-59.264A59.716 59.716 0 10256 315.733zm0 187.734a59.852 59.852 0 007.167-.47c-23.258-3.549-41.299-28.705-41.299-59.263 0-30.56 18.042-55.717 41.303-59.264a59.715 59.715 0 00-60.056 87.046A59.71 59.71 0 00256 503.467z" fill="#fff"/><path d="M256 136.533c-37.703 0-68.267-30.564-68.267-68.267S218.297 0 256 0c37.703 0 68.267 30.564 68.267 68.267-.043 37.684-30.582 68.223-68.267 68.266zm0-119.466c-28.277 0-51.2 22.923-51.2 51.2s22.923 51.2 51.2 51.2 51.2-22.923 51.2-51.2c-.031-28.265-22.936-51.169-51.2-51.2zM256 512c-37.703 0-68.267-30.564-68.267-68.267s30.564-68.267 68.267-68.267c37.703 0 68.267 30.564 68.267 68.267-.043 37.685-30.582 68.224-68.267 68.267zm0-119.467c-28.277 0-51.2 22.923-51.2 51.2 0 28.277 22.923 51.2 51.2 51.2s51.2-22.923 51.2-51.2c-.031-28.264-22.936-51.169-51.2-51.2zm0-68.266c-37.703 0-68.267-30.564-68.267-68.267 0-37.703 30.564-68.267 68.267-68.267 37.703 0 68.267 30.564 68.267 68.267-.043 37.685-30.582 68.224-68.267 68.267zm0-119.467c-28.277 0-51.2 22.923-51.2 51.2 0 28.277 22.923 51.2 51.2 51.2s51.2-22.923 51.2-51.2c-.031-28.264-22.936-51.169-51.2-51.2z" fill="#428dff"/></svg>