<svg xmlns="http://www.w3.org/2000/svg" viewBox="0 0 512 512"><circle cx="256" cy="246.154" r="246.154" fill="#a4c2f7"/><ellipse cx="256" cy="246.154" rx="216.615" ry="246.154" fill="#e3e7f2"/><path d="M39.385 246.154C39.385 110.207 136.367 0 256 0 120.053 0 9.846 110.207 9.846 246.154S120.053 492.308 256 492.308c-119.633 0-216.615-110.207-216.615-246.154z" fill="#fff"/><g fill="#428dff"><path d="M256 512C114.615 512 0 397.385 0 256S114.615 0 256 0s256 114.615 256 256c-.158 141.319-114.681 255.842-256 256zm0-492.308C125.491 19.692 19.692 125.491 19.692 256S125.491 492.308 256 492.308 492.308 386.509 492.308 256C492.158 125.553 386.447 19.842 256 19.692z"/><path d="M256 393.846a9.84 9.84 0 01-9.846-9.846V137.846c0-5.438 4.408-9.846 9.846-9.846s9.846 4.408 9.846 9.846V384a9.84 9.84 0 01-9.846 9.846z"/><path d="M379.077 265.846H132.923c-5.438 0-9.846-4.408-9.846-9.846s4.408-9.846 9.846-9.846h246.154c5.438 0 9.846 4.408 9.846 9.846s-4.408 9.846-9.846 9.846z"/></g></svg>