<svg height="512" viewBox="0 0 60 60" width="512" xmlns="http://www.w3.org/2000/svg"><g fill="none"><g transform="translate(1 1)"><rect fill="#e8edfc" height="58" rx="2" width="58"/><path d="M56 0h-3a2 2 0 012 2v54a2 2 0 01-2 2h3a2 2 0 002-2V2a2 2 0 00-2-2z" fill="#cad9fc"/><rect fill="#a4c2f7" height="16" rx="1" width="16" x="4" y="4"/><path d="M19 4h-3a1 1 0 011 1v14a1 1 0 01-1 1h3a1 1 0 001-1V5a1 1 0 00-1-1z" fill="#7facfa"/><rect fill="#a4c2f7" height="12" rx="1" width="12" x="4" y="24"/><path d="M15 24h-3a1 1 0 011 1v10a1 1 0 01-1 1h3a1 1 0 001-1V25a1 1 0 00-1-1z" fill="#7facfa"/><rect fill="#a4c2f7" height="12" rx="1" width="12" x="23" y="24"/><path d="M34 24h-3a1 1 0 011 1v10a1 1 0 01-1 1h3a1 1 0 001-1V25a1 1 0 00-1-1z" fill="#7facfa"/><rect fill="#a4c2f7" height="12" rx="1" width="12" x="42" y="24"/><path d="M53 24h-3a1 1 0 011 1v10a1 1 0 01-1 1h3a1 1 0 001-1V25a1 1 0 00-1-1z" fill="#7facfa"/><rect fill="#a4c2f7" height="12" rx="1" width="12" x="4" y="42"/><path d="M15 42h-3a1 1 0 011 1v10a1 1 0 01-1 1h3a1 1 0 001-1V43a1 1 0 00-1-1z" fill="#7facfa"/><rect fill="#a4c2f7" height="12" rx="1" width="12" x="23" y="42"/><path d="M34 42h-3a1 1 0 011 1v10a1 1 0 01-1 1h3a1 1 0 001-1V43a1 1 0 00-1-1z" fill="#7facfa"/><rect fill="#a4c2f7" height="12" rx="1" width="12" x="42" y="42"/><path d="M53 42h-3a1 1 0 011 1v10a1 1 0 01-1 1h3a1 1 0 001-1V43a1 1 0 00-1-1z" fill="#7facfa"/><path d="M16 8v3.5A3.5 3.5 0 1112.5 8z" fill="#e8edfc"/></g><path d="M3 59h3a2 2 0 01-2-2V3a2 2 0 012-2H3a2 2 0 00-2 2v54a2 2 0 002 2z" fill="#fff"/><path d="M0 49h2v8H0z" fill="#fff"/><g fill="#428dff"><circle cx="1" cy="53" r="1"/><path d="M57 0H3a3 3 0 00-3 3v46a1 1 0 002 0V3a1 1 0 011-1h54a1 1 0 011 1v54a1 1 0 01-1 1H3a1 1 0 01-1-1 1 1 0 00-2 0 3 3 0 003 3h54a3 3 0 003-3V3a3 3 0 00-3-3z"/><path d="M52.293 7.707a1 1 0 001.414 0L54 7.414l.293.293a1 1 0 001.414-1.414L55.414 6l.293-.293a1 1 0 10-1.414-1.414L54 4.586l-.293-.293a1 1 0 00-1.414 1.414l.293.293-.293.293a1 1 0 000 1.414zM6 22h14a2 2 0 002-2V6a2 2 0 00-2-2H6a2 2 0 00-2 2v14a2 2 0 002 2zM6 6h14v14H6zm28-1h-9a1 1 0 000 2h9a1 1 0 000-2zm-9 8h3a1 1 0 000-2h-3a1 1 0 000 2zm6-1a1 1 0 001 1h7a1 1 0 000-2h-7a1 1 0 00-1 1zm-6 5h16a1 1 0 000-2H25a1 1 0 000 2zm0 4h3a1 1 0 000-2h-3a1 1 0 000 2zm7-2a1 1 0 000 2h7a1 1 0 000-2zM4 36a2 2 0 002 2h10a2 2 0 002-2V26a2 2 0 00-2-2H6a2 2 0 00-2 2zm2-10h10v10H6zm17 0v10a2 2 0 002 2h10a2 2 0 002-2V26a2 2 0 00-2-2H25a2 2 0 00-2 2zm2 0h10v10H25zm17 0v10a2 2 0 002 2h10a2 2 0 002-2V26a2 2 0 00-2-2H44a2 2 0 00-2 2zm12 10H44V26h10zM4 54a2 2 0 002 2h10a2 2 0 002-2V44a2 2 0 00-2-2H6a2 2 0 00-2 2zm2-10h10v10H6zm17 10a2 2 0 002 2h10a2 2 0 002-2V44a2 2 0 00-2-2H25a2 2 0 00-2 2zm2-10h10v10H25zm29-2H44a2 2 0 00-2 2v10a2 2 0 002 2h10a2 2 0 002-2V44a2 2 0 00-2-2zM44 54V44h10v10z"/><path d="M17 8h-3.5A4.505 4.505 0 009 12.5c.002.846.245 1.673.7 2.386l-1.407 1.407a1 1 0 101.414 1.414l1.407-1.407c.713.455 1.54.698 2.386.7a4.505 4.505 0 004.5-4.5V9a1 1 0 00-1-1zm-1 4.5a2.5 2.5 0 01-4.253 1.778l-.01-.015c-.004-.005-.011-.005-.015-.01A2.5 2.5 0 0113.5 10H16zm-3.707 15.793l-4 4a1 1 0 101.414 1.414l4-4a1 1 0 00-1.414-1.414zm19 0l-4 4a1 1 0 101.414 1.414l4-4a1 1 0 00-1.414-1.414z"/></g></g></svg>