<svg xmlns="http://www.w3.org/2000/svg" viewBox="0 0 512 512"><circle cx="269.964" cy="232.727" r="65.164" fill="#a4c2f7"/><ellipse cx="256" cy="232.727" rx="51.2" ry="65.164" fill="#e3e7f2"/><path d="M269.964 297.891a65.112 65.112 0 007.82-.514c-25.374-3.868-45.056-31.314-45.056-64.65s19.682-60.782 45.056-64.65a65.141 65.141 0 00-61.46 27.677 65.143 65.143 0 0053.64 102.137z" fill="#fff"/><g fill="#a4c2f7"><circle cx="456.145" cy="55.855" r="46.545"/><circle cx="269.964" cy="456.145" r="46.545"/></g><g fill="#e3e7f2"><ellipse cx="442.182" cy="55.855" rx="32.582" ry="46.545"/><ellipse cx="256" cy="456.145" rx="32.582" ry="46.545"/></g><circle cx="55.855" cy="437.527" r="46.545" fill="#a4c2f7"/><g fill="#e3e7f2"><circle cx="121.018" cy="83.782" r="27.927"/><ellipse cx="41.891" cy="437.527" rx="32.582" ry="46.545"/></g><path d="M55.855 484.073a46.6 46.6 0 008.214-.827c-15.241-3.893-26.832-22.825-26.832-45.718s11.59-41.825 26.832-45.718a46.501 46.501 0 10-8.214 92.263zm215.204 18.618a46.6 46.6 0 008.214-.827c-15.241-3.893-26.832-22.825-26.832-45.718s11.59-41.825 26.832-45.718a46.501 46.501 0 10-8.214 92.263zM457.241 102.4a46.6 46.6 0 008.214-.827c-15.242-3.893-26.832-22.825-26.832-45.718s11.59-41.825 26.832-45.718a46.501 46.501 0 10-8.214 92.263z" fill="#fff"/><circle cx="418.909" cy="381.673" r="27.927" fill="#e3e7f2"/><g fill="#428dff"><path d="M269.964 307.2c-41.13 0-74.473-33.343-74.473-74.473s33.343-74.473 74.473-74.473 74.473 33.343 74.473 74.473c-.048 41.111-33.363 74.426-74.473 74.473zm0-130.327c-30.848 0-55.855 25.007-55.855 55.855s25.007 55.855 55.855 55.855 55.855-25.007 55.855-55.855c-.035-30.834-25.022-55.822-55.855-55.855zm186.181-65.164c-30.848 0-55.855-25.007-55.855-55.855S425.298 0 456.145 0 512 25.007 512 55.855c-.034 30.833-25.021 55.82-55.855 55.854zm0-93.091c-20.565 0-37.236 16.671-37.236 37.236S435.58 93.09 456.145 93.09s37.236-16.671 37.236-37.236c-.021-20.555-16.68-37.214-37.236-37.236zM269.964 512c-30.848 0-55.855-25.007-55.855-55.855s25.007-55.855 55.855-55.855 55.855 25.007 55.855 55.855c-.035 30.834-25.022 55.821-55.855 55.855zm0-93.091c-20.565 0-37.236 16.671-37.236 37.236s16.671 37.236 37.236 37.236S307.2 476.71 307.2 456.145c-.022-20.556-16.68-37.214-37.236-37.236zM55.855 493.382C25.007 493.382 0 468.375 0 437.527s25.007-55.855 55.855-55.855 55.855 25.007 55.855 55.855c-.035 30.834-25.022 55.821-55.855 55.855zm0-93.091c-20.565 0-37.236 16.671-37.236 37.236s16.671 37.236 37.236 37.236 37.236-16.671 37.236-37.236c-.022-20.556-16.68-37.214-37.236-37.236zm65.163-279.273c-20.565 0-37.236-16.671-37.236-37.236s16.671-37.236 37.236-37.236 37.236 16.671 37.236 37.236c-.021 20.556-16.68 37.214-37.236 37.236zm0-55.854c-10.283 0-18.618 8.336-18.618 18.618s8.336 18.618 18.618 18.618 18.618-8.336 18.618-18.618c-.011-10.278-8.34-18.607-18.618-18.618zm297.891 353.745c-20.565 0-37.236-16.671-37.236-37.236 0-20.565 16.671-37.236 37.236-37.236s37.236 16.671 37.236 37.236c-.021 20.556-16.68 37.214-37.236 37.236zm0-55.854c-10.283 0-18.618 8.336-18.618 18.618 0 10.283 8.336 18.618 18.618 18.618s18.618-8.336 18.618-18.618c-.011-10.278-8.34-18.607-18.618-18.618z"/><path d="M269.964 418.909a9.305 9.305 0 01-9.309-9.309V297.891a9.31 9.31 0 0118.618 0V409.6a9.305 9.305 0 01-9.309 9.309zm46.545-223.418a9.31 9.31 0 01-6.582-15.891l102.4-102.4a9.308 9.308 0 1113.163 13.163l-102.4 102.4a9.276 9.276 0 01-6.581 2.728zM93.091 418.909a9.31 9.31 0 01-6.582-15.891l130.327-130.327a9.309 9.309 0 0113.163 13.163L99.672 416.182a9.28 9.28 0 01-6.581 2.727zm130.327-223.418a9.28 9.28 0 01-6.582-2.728l-83.782-83.782a9.309 9.309 0 0113.163-13.163L230 179.6a9.308 9.308 0 01-6.582 15.891zm176.873 176.873a9.28 9.28 0 01-6.582-2.728l-83.782-83.782a9.309 9.309 0 0113.163-13.163l83.782 83.782a9.308 9.308 0 01-6.581 15.891z"/></g></svg>