<svg height="512" viewBox="0 0 60 60" width="512" xmlns="http://www.w3.org/2000/svg"><g fill="none"><path d="M22 8h33a4 4 0 014 4v36a4 4 0 01-4 4H5a4 4 0 01-4-4V12a4 4 0 014-4z" fill="#e8edfc"/><path d="M55 8h-3a4 4 0 014 4v36a4 4 0 01-4 4h3a4 4 0 004-4V12a4 4 0 00-4-4z" fill="#cad9fc"/><rect fill="#a4c2f7" height="4" rx="2" width="46" x="7" y="16"/><rect fill="#a4c2f7" height="4" rx="2" width="34" x="7" y="24"/><rect fill="#a4c2f7" height="4" rx="2" width="8" x="45" y="24"/><rect fill="#a4c2f7" height="4" rx="2" transform="rotate(180 39.5 34)" width="27" x="26" y="32"/><rect fill="#a4c2f7" height="4" rx="2" transform="rotate(180 14.5 34)" width="15" x="7" y="32"/><rect fill="#a4c2f7" height="4" rx="2" transform="rotate(180 20 42)" width="26" x="7" y="40"/><circle cx="9" cy="8" fill="#e8edfc" r="3"/><circle cx="19" cy="8" fill="#e8edfc" r="3"/><circle cx="51" cy="52" fill="#e8edfc" r="3"/><circle cx="41" cy="52" fill="#e8edfc" r="3"/><path d="M5 52h3a4 4 0 01-4-4V12a4 4 0 014-4h1a2.987 2.987 0 011.5-2.584A2.968 2.968 0 009 5a3 3 0 00-3 3H5a4 4 0 00-4 4v36a4 4 0 004 4z" fill="#fff"/><path d="M0 40h2v8H0z" fill="#fff"/><g fill="#428dff"><path d="M55 7H22.858A4 4 0 0019 4a3.932 3.932 0 00-1.04.155A3.7 3.7 0 0121 2a1 1 0 000-2c-3.054 0-5.577 3.06-5.948 7h-2.194A4 4 0 009 4a3.932 3.932 0 00-1.04.155A3.7 3.7 0 0111 2a1 1 0 000-2C7.946 0 5.423 3.06 5.052 7H5a5.006 5.006 0 00-5 5v28a1 1 0 002 0V12a3 3 0 013-3h.142a3.981 3.981 0 007.716 0h2.284a3.981 3.981 0 007.716 0H55a3 3 0 013 3v36a3 3 0 01-3 3h-.142a3.981 3.981 0 00-7.716 0h-2.284a3.981 3.981 0 00-7.716 0H5a3 3 0 01-3-3 1 1 0 00-2 0 5.006 5.006 0 005 5h32.142A4 4 0 0041 56a3.932 3.932 0 001.04-.155A3.7 3.7 0 0139 58a1 1 0 000 2c3.054 0 5.577-3.06 5.948-7h2.194A4 4 0 0051 56a3.932 3.932 0 001.04-.155A3.7 3.7 0 0149 58a1 1 0 000 2c3.054 0 5.577-3.06 5.948-7H55a5.006 5.006 0 005-5V12a5.006 5.006 0 00-5-5zM9 10a2 2 0 110-4 2 2 0 010 4zm10 0a2 2 0 110-4 2 2 0 010 4zm22 44a2 2 0 110-4 2 2 0 010 4zm10 0a2 2 0 110-4 2 2 0 010 4z"/><path d="M1.02 45a1 1 0 01-.01-2h.01a1 1 0 010 2zM51 15H9a3 3 0 000 6h42a3 3 0 000-6zm0 4H9a1 1 0 010-2h42a1 1 0 010 2zM9 29h30a3 3 0 000-6H9a3 3 0 000 6zm0-4h30a1 1 0 010 2H9a1 1 0 010-2zm42-2h-4a3 3 0 000 6h4a3 3 0 000-6zm0 4h-4a1 1 0 010-2h4a1 1 0 010 2zm0 4H28a3 3 0 000 6h23a3 3 0 000-6zm0 4H28a1 1 0 010-2h23a1 1 0 010 2zM9 37h11a3 3 0 000-6H9a3 3 0 000 6zm0-4h11a1 1 0 010 2H9a1 1 0 010-2zm0 12h22a3 3 0 000-6H9a3 3 0 000 6zm0-4h22a1 1 0 010 2H9a1 1 0 010-2z"/></g></g></svg>