<svg xmlns="http://www.w3.org/2000/svg" viewBox="0 0 512 512"><circle cx="256" cy="256" r="246.691" fill="#a4c2f7"/><ellipse cx="242.036" cy="256" rx="232.727" ry="246.691" fill="#e3e7f2"/><path d="M256 502.691c2.41 0 4.792-.114 7.185-.182C137.797 498.697 37.236 389.834 37.236 256S137.797 13.303 263.185 9.491c-2.393-.068-4.776-.182-7.185-.182C119.756 9.309 9.309 119.756 9.309 256S119.756 502.691 256 502.691z" fill="#fff"/><path d="M182.575 396.123l-73.611 40.152a65.895 65.895 0 00-11.813 8.41c91.428 77.035 224.948 77.375 316.768.808a65.894 65.894 0 00-12.976-8.699l-78.818-39.408a30.062 30.062 0 01-16.618-26.889V339.57a119.034 119.034 0 007.456-9.586 181.372 181.372 0 0024.498-49.373 24.757 24.757 0 0017.554-23.553v-33.006a24.61 24.61 0 00-8.251-18.291v-47.718S356.562 83.782 256 83.782s-90.764 74.261-90.764 74.261v47.718a24.61 24.61 0 00-8.251 18.291v33.006a24.745 24.745 0 0011.409 20.767 163.702 163.702 0 0029.847 61.745v30.16a30.064 30.064 0 01-15.666 26.393z" fill="#7facfa"/><path d="M396.624 436.16l-103.696-39.408a30.062 30.062 0 01-16.618-26.889v-30.927a119.034 119.034 0 007.456-9.586 181.372 181.372 0 0024.498-49.373 24.757 24.757 0 0017.554-23.553v-33.006a24.614 24.614 0 00-8.251-18.291v-47.718s9.798-74.261-90.764-74.261c-5.986 0-11.555.279-16.784.775a10.765 10.765 0 01-6.615 11.316 259.852 259.852 0 00-34.858 17.461 9.573 9.573 0 017.924 9.482c2.006 34.272-9.784 74.512-20.381 109.543.326 13.793.628 27.589 1.029 41.382 1.019 3.184 2.041 6.366 3.04 9.554a10.76 10.76 0 014.315 4.989c4.252 10.127 8.993 20.506 13.106 31.076a11.414 11.414 0 0113.658 6.742 124.647 124.647 0 016.76 31.768 8.017 8.017 0 01-4.016 8.059 138.709 138.709 0 01-25.697 49.098 10.15 10.15 0 01-16.832-4.443 50.174 50.174 0 01-1.215-5.261c-6.922 4.111-14.343 7.703-22.354 12.189-4.302 2.409-36.988 17.414-37.804 21.136-4.619 21.061 69.219 47.182 106.288 61.95a247.467 247.467 0 0030.437 2.093c60.082 0 140.007-21.5 182.797-57.198a65.93 65.93 0 00-12.977-8.699z" fill="#a4c2f7"/><g fill="#428dff"><path d="M256 512C114.615 512 0 397.385 0 256S114.615 0 256 0s256 114.615 256 256c-.163 141.317-114.683 255.837-256 256zm0-493.382C124.898 18.618 18.618 124.898 18.618 256S124.898 493.382 256 493.382 493.382 387.102 493.382 256C493.232 124.96 387.04 18.768 256 18.618z"/><path d="M256 512a256.218 256.218 0 01-164.855-60.2 9.312 9.312 0 01-.118-14.136 75.102 75.102 0 0113.482-9.564l73.609-40.145a20.76 20.76 0 0010.818-18.227v-26.936a174.75 174.75 0 01-28.791-59.473 33.888 33.888 0 01-12.473-26.264v-33A33.9 33.9 0 01155.927 202v-43.446a75.087 75.087 0 0117.527-54.591c17.155-19.572 44.928-29.49 82.546-29.49s65.391 9.918 82.545 29.491a75.091 75.091 0 0117.527 54.591V202a33.905 33.905 0 018.255 22.055v33a33.79 33.79 0 01-19.409 30.618 189.867 189.867 0 01-24.355 47.69 148.636 148.636 0 01-5.745 7.609v27.527a20.638 20.638 0 0011.473 18.556l78.818 39.409a74.794 74.794 0 0114.809 9.909 9.306 9.306 0 01-.037 14.263A256.248 256.248 0 01256 512zm-143.564-67c84.392 64.16 201.108 64.543 285.918.936a60.506 60.506 0 00-1.573-.818l-78.818-39.409a39.14 39.14 0 01-21.764-35.209v-30.927c0-2.258.82-4.439 2.309-6.136a111.688 111.688 0 006.854-8.836 172.05 172.05 0 0023.236-46.845 9.311 9.311 0 016.118-6.036 15.554 15.554 0 0010.991-14.664v-33a15.204 15.204 0 00-5.182-11.382 9.304 9.304 0 01-3.073-6.909v-47.718c0-.407.027-.814.082-1.218a56.992 56.992 0 00-13.155-40.782c-13.49-15.227-36.49-22.954-68.381-22.954-32.018 0-55.082 7.791-68.545 23.145a56.095 56.095 0 00-12.991 40.591c.055.404.082.811.082 1.218v47.718a9.304 9.304 0 01-3.073 6.909 15.204 15.204 0 00-5.182 11.382v33a15.407 15.407 0 007.155 12.955 9.323 9.323 0 014.018 5.736 155.485 155.485 0 0027.937 57.864 9.396 9.396 0 012.155 5.964v30.154a39.364 39.364 0 01-20.527 34.573l-73.609 40.145c-.327.18-.654.362-.982.553z"/></g></svg>